<!-- Generated by IcoMoon.io -->
<svg version="1.1" xmlns="http://www.w3.org/2000/svg" width="32" height="32" viewBox="0 0 32 32">
<title>microgaming</title>
<path fill="#fff" d="M27.003 15.998c0 6.008-4.871 10.879-10.879 10.879s-10.879-4.871-10.879-10.879c0-6.008 4.871-10.879 10.879-10.879s10.879 4.871 10.879 10.879z"></path>
<path fill="#000" d="M5.669 19.026c-1.929-5.594 2.064-14.004 10.686-13.946 7.504 0.27 10.802 6.79 10.667 10.744 0.135 4.938-3.723 11.034-10.898 11.053-5.112 0.135-8.545-3.781-9.104-4.9 0.232-0.27 5.034-8.64 5.034-8.64s-0.502 9.953 2.932 9.992 5.671-7.466 6.23-7.871c0.193 0.347 1.582 3.781 2.874 4.475 0.328 0.212 0.617-0.232 0.405-0.502-0.405-0.289-1.871-2.816-2.16-6.848-0.058-0.849-1.428-1.408-2.064-0.096-0.56 1.35-3.067 7.253-5.092 8.72-0.54-0.636-1.698-4.051-0.887-13.040-0.154-1.312-1.68-1.040-1.968-0.27-0.386 1.137-4.591 8.814-6.655 11.129z"></path>
</svg>
