<!-- Generated by IcoMoon.io -->
<svg version="1.1" xmlns="http://www.w3.org/2000/svg" width="32" height="32" viewBox="0 0 32 32">
<title>habanero</title>
<path fill="#fff" d="M11.744 15.596h8.894v7.298h-8.894v-7.298z"></path>
<path fill="#000" d="M17.232 6.64c0.314 0 0.568-0.254 0.568-0.568v0-1.643c0-0.313-0.254-0.566-0.566-0.566s-0.566 0.254-0.566 0.566v1.643c0 0 0 0 0 0 0 0.313 0.252 0.566 0.564 0.568h0z"></path>
<path fill="#000" d="M14.966 8.146c0.312-0.001 0.565-0.254 0.566-0.566v-1.643c0-0.313-0.254-0.566-0.566-0.566s-0.566 0.254-0.566 0.566v1.635c0 0.001 0 0.003 0 0.004 0 0.314 0.253 0.568 0.566 0.57h0z"></path>
<path fill="#000" d="M14.966 4.357c0.312-0.001 0.565-0.254 0.566-0.566v-0 0.016c0-0.313-0.254-0.566-0.566-0.566s-0.566 0.254-0.566 0.566v0-0.016c0.004 0.311 0.255 0.562 0.566 0.566h0z"></path>
<path fill="#000" d="M19.505 8.576c0.312-0.001 0.565-0.254 0.566-0.566v-0 0.016c0-0.313-0.254-0.566-0.566-0.566s-0.566 0.254-0.566 0.566v0-0.016c-0 0.002-0 0.004-0 0.006 0 0.309 0.251 0.56 0.56 0.56 0.002 0 0.005 0 0.007-0h-0z"></path>
<path fill="#000" d="M24.036 12.78c-0.312 0.001-0.565 0.254-0.566 0.566v0.287c-0.022 0.295-0.267 0.526-0.566 0.526-0.31 0-0.562-0.249-0.567-0.557v-1.413c0-0.313-0.254-0.566-0.566-0.566s-0.566 0.254-0.566 0.566v0 0.032c0 0.007 0 0.016 0 0.024 0 0.313-0.254 0.567-0.567 0.567-0.305 0-0.553-0.24-0.566-0.542l-0-0.001v-2.433c0-0.313-0.254-0.566-0.566-0.566s-0.566 0.254-0.566 0.566v0 0.901c-0.007 0.31-0.256 0.559-0.566 0.566h-0.001c-0.312-0.001-0.565-0.254-0.566-0.566v-2.553c0-0.313-0.254-0.566-0.566-0.566s-0.566 0.254-0.566 0.566v0 2.226c0 0.313-0.254 0.566-0.566 0.566s-0.566-0.254-0.566-0.566v0-0.798c0-0.313-0.254-0.566-0.566-0.566s-0.566 0.254-0.566 0.566v1.707c0 0.313-0.254 0.566-0.566 0.566s-0.566-0.254-0.566-0.566v0-2.369c0-0.313-0.254-0.566-0.566-0.566s-0.566 0.254-0.566 0.566v3.621c0 0.313-0.254 0.566-0.566 0.566s-0.566-0.254-0.566-0.566v0-0.957c0-0.007 0.001-0.016 0.001-0.024 0-0.313-0.254-0.567-0.567-0.567-0.305 0-0.553 0.24-0.566 0.542l-0 0.001v2.712c0 0.313-0.254 0.566-0.566 0.566s-0.566-0.254-0.566-0.566v-0.878c0-0.313-0.254-0.566-0.566-0.566s-0.566 0.254-0.566 0.566v0l-0.006 0.878v9.811l8.503 4.906 8.503-4.906v-10.76c-0.015-0.306-0.266-0.549-0.574-0.551h-0zM20.103 22.408h-2.672v-2.034h-2.671v2.034h-2.664v-6.365h2.672v2.138h2.672v-2.138h2.672l-0.008 6.365z"></path>
</svg>
