<!-- Generated by IcoMoon.io -->
<svg version="1.1" xmlns="http://www.w3.org/2000/svg" width="32" height="32" viewBox="0 0 32 32">
<title>idnslot</title>
<path d="M23.72 14.167l-0.056-0.056-11.17-6.445-1.389-0.778c-0.205-0.131-0.455-0.209-0.722-0.209s-0.518 0.078-0.728 0.212l0.005-0.003c-0.435 0.261-0.722 0.731-0.722 1.267 0 0.004 0 0.008 0 0.011v-0.001 1.167c0.222-0.667 1.667 0 2.334 0.333v0l0.333 0.167 10.613 6.112c0.667-0.333 1.945-1.222 1.503-1.778z"></path>
<path d="M24.72 14.723l-1.056-0.611 0.056 0.056c0.444 0.556-0.834 1.389-1.5 1.778v0l-0.333 0.167-10.67 6.168c0 0.667 0.157 2.336 0.824 2.28l12.567-7.337c0.451-0.267 0.837-0.699 0.833-1.223s-0.12-0.92-0.72-1.277z"></path>
<path d="M11.272 22.28v0-12.613c-0.667-0.333-2.112-1-2.334-0.333v14.502c0.015 0.792 0.653 1.43 1.443 1.445l0.001 0c0.307-0.023 0.591-0.103 0.847-0.228l-0.014 0.006 0.834-0.5c-0.667 0-0.778-1.558-0.778-2.278z"></path>
</svg>
