<!-- Generated by IcoMoon.io -->
<svg version="1.1" xmlns="http://www.w3.org/2000/svg" width="32" height="32" viewBox="0 0 32 32">
<title>pgsoft</title>
<path d="M4.348 10.806h1.154v1.154h-1.154v-1.154z"></path>
<path d="M5.655 10.806h1.154v1.154h-1.154v-1.154z"></path>
<path d="M6.962 10.806h1.154v1.154h-1.154v-1.154z"></path>
<path d="M8.269 10.806h1.154v1.154h-1.154v-1.154z"></path>
<path d="M9.576 10.806h1.154v1.154h-1.154v-1.154z"></path>
<path d="M10.883 10.806h1.154v1.154h-1.154v-1.154z"></path>
<path d="M12.19 10.806h1.154v1.154h-1.154v-1.154z"></path>
<path d="M13.497 10.806h1.154v1.154h-1.154v-1.154z"></path>
<path d="M4.347 9.492h1.154v1.154h-1.154v-1.154z"></path>
<path d="M5.654 9.492h1.154v1.154h-1.154v-1.154z"></path>
<path d="M6.962 9.492h1.154v1.154h-1.154v-1.154z"></path>
<path d="M8.268 9.492h1.154v1.154h-1.154v-1.154z"></path>
<path d="M9.576 9.492h1.154v1.154h-1.154v-1.154z"></path>
<path d="M10.883 9.492h1.154v1.154h-1.154v-1.154z"></path>
<path d="M12.19 9.492h1.154v1.154h-1.154v-1.154z"></path>
<path d="M3.041 12.12h1.154v1.154h-1.154v-1.154z"></path>
<path d="M4.347 12.12h1.154v1.154h-1.154v-1.154z"></path>
<path d="M12.192 12.12h1.154v1.154h-1.154v-1.154z"></path>
<path d="M13.495 12.12h1.154v1.154h-1.154v-1.154z"></path>
<path d="M14.798 12.12h1.154v1.154h-1.154v-1.154z"></path>
<path d="M3.041 13.435h1.154v1.154h-1.154v-1.154z"></path>
<path d="M4.347 13.435h1.154v1.154h-1.154v-1.154z"></path>
<path d="M13.497 13.435h1.154v1.154h-1.154v-1.154z"></path>
<path d="M14.798 13.435h1.154v1.154h-1.154v-1.154z"></path>
<path d="M3.041 14.749h1.154v1.154h-1.154v-1.154z"></path>
<path d="M4.347 14.749h1.154v1.154h-1.154v-1.154z"></path>
<path d="M13.497 14.749h1.154v1.154h-1.154v-1.154z"></path>
<path d="M14.798 14.749h1.154v1.154h-1.154v-1.154z"></path>
<path d="M3.041 16.063h1.154v1.154h-1.154v-1.154z"></path>
<path d="M4.347 16.063h1.154v1.154h-1.154v-1.154z"></path>
<path d="M12.192 16.063h1.154v1.154h-1.154v-1.154z"></path>
<path d="M13.497 16.063h1.154v1.154h-1.154v-1.154z"></path>
<path d="M14.798 16.063h1.154v1.154h-1.154v-1.154z"></path>
<path d="M3.041 17.378h1.154v1.154h-1.154v-1.154z"></path>
<path d="M4.347 17.378h1.154v1.154h-1.154v-1.154z"></path>
<path d="M5.656 17.378h1.154v1.154h-1.154v-1.154z"></path>
<path d="M6.963 17.378h1.154v1.154h-1.154v-1.154z"></path>
<path d="M8.271 17.378h1.154v1.154h-1.154v-1.154z"></path>
<path d="M9.578 17.378h1.154v1.154h-1.154v-1.154z"></path>
<path d="M10.886 17.378h1.154v1.154h-1.154v-1.154z"></path>
<path d="M12.192 17.378h1.154v1.154h-1.154v-1.154z"></path>
<path d="M13.497 17.378h1.154v1.154h-1.154v-1.154z"></path>
<path d="M3.041 18.692h1.154v1.154h-1.154v-1.154z"></path>
<path d="M4.347 18.692h1.154v1.154h-1.154v-1.154z"></path>
<path d="M5.656 18.692h1.154v1.154h-1.154v-1.154z"></path>
<path d="M6.963 18.692h1.154v1.154h-1.154v-1.154z"></path>
<path d="M8.271 18.692h1.154v1.154h-1.154v-1.154z"></path>
<path d="M9.578 18.692h1.154v1.154h-1.154v-1.154z"></path>
<path d="M3.041 20.006h1.154v1.154h-1.154v-1.154z"></path>
<path d="M4.347 20.006h1.154v1.154h-1.154v-1.154z"></path>
<path d="M3.041 21.32h1.154v1.154h-1.154v-1.154z"></path>
<path d="M3.041 10.806h1.154v1.154h-1.154v-1.154z"></path>
<path d="M13.497 9.492h1.154v1.154h-1.154v-1.154z"></path>
<path d="M10.886 18.692h1.154v1.154h-1.154v-1.154z"></path>
<path d="M4.347 21.32h1.154v1.154h-1.154v-1.154z"></path>
<path d="M18.276 10.806h1.154v1.154h-1.154v-1.154z"></path>
<path d="M19.583 10.806h1.154v1.154h-1.154v-1.154z"></path>
<path d="M20.892 10.806h1.154v1.154h-1.154v-1.154z"></path>
<path d="M22.199 10.806h1.154v1.154h-1.154v-1.154z"></path>
<path d="M23.504 10.806h1.154v1.154h-1.154v-1.154z"></path>
<path d="M24.812 10.806h1.154v1.154h-1.154v-1.154z"></path>
<path d="M26.118 10.806h1.154v1.154h-1.154v-1.154z"></path>
<path d="M27.422 10.806h1.154v1.154h-1.154v-1.154z"></path>
<path d="M20.892 9.492h1.154v1.154h-1.154v-1.154z"></path>
<path d="M22.199 9.492h1.154v1.154h-1.154v-1.154z"></path>
<path d="M23.504 9.492h1.154v1.154h-1.154v-1.154z"></path>
<path d="M24.812 9.492h1.154v1.154h-1.154v-1.154z"></path>
<path d="M26.118 9.492h1.154v1.154h-1.154v-1.154z"></path>
<path d="M18.276 12.12h1.154v1.154h-1.154v-1.154z"></path>
<path d="M19.583 12.12h1.154v1.154h-1.154v-1.154z"></path>
<path d="M26.118 12.12h1.154v1.154h-1.154v-1.154z"></path>
<path d="M27.422 12.12h1.154v1.154h-1.154v-1.154z"></path>
<path d="M16.969 13.435h1.154v1.154h-1.154v-1.154z"></path>
<path d="M18.276 13.435h1.154v1.154h-1.154v-1.154z"></path>
<path d="M16.969 14.749h1.154v1.154h-1.154v-1.154z"></path>
<path d="M18.276 14.749h1.154v1.154h-1.154v-1.154z"></path>
<path d="M23.504 14.749h1.154v1.154h-1.154v-1.154z"></path>
<path d="M24.812 14.749h1.154v1.154h-1.154v-1.154z"></path>
<path d="M26.118 14.749h1.154v1.154h-1.154v-1.154z"></path>
<path d="M27.422 14.749h1.154v1.154h-1.154v-1.154z"></path>
<path d="M16.969 16.063h1.154v1.154h-1.154v-1.154z"></path>
<path d="M18.276 16.063h1.154v1.154h-1.154v-1.154z"></path>
<path d="M23.504 16.063h1.154v1.154h-1.154v-1.154z"></path>
<path d="M24.812 16.063h1.154v1.154h-1.154v-1.154z"></path>
<path d="M26.118 16.063h1.154v1.154h-1.154v-1.154z"></path>
<path d="M27.422 16.063h1.154v1.154h-1.154v-1.154z"></path>
<path d="M28.726 16.063h1.154v1.154h-1.154v-1.154z"></path>
<path d="M16.969 17.378h1.154v1.154h-1.154v-1.154z"></path>
<path d="M18.276 17.378h1.154v1.154h-1.154v-1.154z"></path>
<path d="M27.422 17.378h1.154v1.154h-1.154v-1.154z"></path>
<path d="M28.726 17.378h1.154v1.154h-1.154v-1.154z"></path>
<path d="M16.969 18.692h1.154v1.154h-1.154v-1.154z"></path>
<path d="M18.276 18.692h1.154v1.154h-1.154v-1.154z"></path>
<path fill="#000" d="M26.118 18.692h1.154v1.154h-1.154v-1.154z"></path>
<path d="M27.422 18.692h1.154v1.154h-1.154v-1.154z"></path>
<path d="M28.726 18.692h1.154v1.154h-1.154v-1.154z"></path>
<path d="M19.583 20.006h1.154v1.154h-1.154v-1.154z"></path>
<path d="M20.892 20.006h1.154v1.154h-1.154v-1.154z"></path>
<path d="M22.199 20.006h1.154v1.154h-1.154v-1.154z"></path>
<path d="M23.504 20.006h1.154v1.154h-1.154v-1.154z"></path>
<path d="M24.812 20.006h1.154v1.154h-1.154v-1.154z"></path>
<path d="M26.118 20.006h1.154v1.154h-1.154v-1.154z"></path>
<path d="M27.422 20.006h1.154v1.154h-1.154v-1.154z"></path>
<path d="M19.583 21.32h1.154v1.154h-1.154v-1.154z"></path>
<path d="M20.892 21.32h1.154v1.154h-1.154v-1.154z"></path>
<path d="M22.199 21.32h1.154v1.154h-1.154v-1.154z"></path>
<path d="M23.504 21.32h1.154v1.154h-1.154v-1.154z"></path>
<path d="M24.812 21.32h1.154v1.154h-1.154v-1.154z"></path>
<path d="M19.583 9.492h1.154v1.154h-1.154v-1.154z"></path>
<path d="M16.969 12.12h1.154v1.154h-1.154v-1.154z"></path>
<path d="M28.726 14.749h1.154v1.154h-1.154v-1.154z"></path>
<path d="M18.276 20.006h1.154v1.154h-1.154v-1.154z"></path>
<path d="M26.118 21.32h1.154v1.154h-1.154v-1.154z"></path>
</svg>
