<!-- Generated by IcoMoon.io -->
<svg version="1.1" xmlns="http://www.w3.org/2000/svg" width="32" height="32" viewBox="0 0 32 32">
<title>pragmaticplay</title>
<path d="M16 10.676c-5.193 0-9.403 4.21-9.403 9.403s4.21 9.403 9.403 9.403c5.193 0 9.403-4.21 9.403-9.403v0c0-5.193-4.21-9.403-9.403-9.403v0zM16 28.496c-0 0-0.001 0-0.001 0-4.647 0-8.415-3.768-8.415-8.415s3.768-8.415 8.415-8.415c4.647 0 8.415 3.768 8.415 8.415v0c0 4.647-3.767 8.414-8.413 8.415h-0zM15.716 4.112c-2.232 1.687-1.844 4.275-1.844 4.275s-1.403-3.642-3.225-5.868c-0.246 2.866 0.652 6.663 0.652 6.663s-1.141-2.354-3.937-2.486c2.319 1.333 3.218 3.734 3.424 4.378 1.306-0.818 2.88-1.327 4.569-1.387l0.016-0c-0.183-0.6-0.833-3.127 0.344-5.574z"></path>
<path d="M17.232 13.024c-2.919 0.181-1.608 3.982 1.618 3.782 3.156-0.196 1.491-3.975-1.618-3.782z"></path>
<path d="M8.805 17.898v5.070h0.818v-1.968h0.908c0.57 0 1.005-0.137 1.307-0.412s0.452-0.652 0.452-1.131c-0.001-0.483-0.149-0.864-0.444-1.142s-0.734-0.417-1.318-0.417zM12.876 17.898v5.070h2.571v-0.639h-1.752v-4.431zM19.541 17.898l1.695 3.224v1.846h0.824v-1.846l1.687-3.224h-0.931l-1.163 2.348-1.164-2.348zM17.66 17.978l-1.868 4.991h0.877l0.388-1.099h2.14l0.388 1.099h0.877l-1.86-4.991zM9.623 18.573h0.821c0.354-0.001 0.612 0.075 0.772 0.226s0.241 0.37 0.241 0.657c0 0.584-0.338 0.876-1.015 0.876h-0.819zM18.126 18.869l0.84 2.369h-1.681z"></path>
</svg>
