<!-- Generated by IcoMoon.io -->
<svg version="1.1" xmlns="http://www.w3.org/2000/svg" width="32" height="32" viewBox="0 0 32 32">
<title>slotmania</title>
<path d="M2.211 14.859l13.787-10.431 13.443 10.092s0.614 0.966 0.321 1.739-0.672 1.642-0.847 1.642-12.918 9.32-12.918 9.32-13.816-9.755-13.787-10.14-0.567-1.793 0-2.223z"></path>
<path opacity="0.2" fill="#000" d="M15.998 4.222l13.66 10.512c0.568 0.438-0.029 1.87 0 2.263 0.027 0.37-12.168 9.152-13.66 10.226z"></path>
<path opacity="0.3" fill="#000" d="M31.122 16.214c-0.001-0.009-0.002-0.018-0.005-0.026l0 0.001c-0.001-0.008 0-0.017-0.002-0.025-0.039-0.31-0.313-0.532-0.614-0.495-0.101 0.013-0.19 0.053-0.264 0.112l0.001-0.001c0.001-0.019 0.001-0.042 0.001-0.064 0-0.273-0.052-0.533-0.146-0.772l0.005 0.014c0.162-0.088 0.276-0.248 0.298-0.436l0-0.003c-0-0.001-0-0.003-0-0.004 0-0.007 0.001-0.015 0.002-0.022l-0 0.001c0.002-0.008 0.003-0.016 0.004-0.025 0.039-0.31-0.173-0.592-0.473-0.629-0.019-0.002-0.040-0.004-0.062-0.004-0.2 0-0.374 0.107-0.469 0.267l-0.001 0.002-0.753-0.576c0.114-0.092 0.191-0.226 0.209-0.377l0-0.003c-0-0.001-0-0.003-0-0.004 0-0.007 0.001-0.015 0.002-0.022l-0 0.001c0.002-0.008 0.003-0.016 0.004-0.025 0.039-0.31-0.173-0.592-0.473-0.629-0.018-0.002-0.039-0.003-0.060-0.003-0.255 0-0.469 0.172-0.533 0.406l-0.001 0.004-0.508-0.387c0.114-0.092 0.191-0.226 0.21-0.377l0-0.003c-0-0.001-0-0.003-0-0.004 0-0.007 0.001-0.015 0.002-0.022l-0 0.001c0.002-0.008 0.003-0.016 0.004-0.025 0.039-0.31-0.173-0.592-0.473-0.629-0.018-0.002-0.038-0.003-0.059-0.003-0.255 0-0.47 0.173-0.534 0.408l-0.001 0.004-0.506-0.387c0.112-0.092 0.188-0.224 0.206-0.374l0-0.003c-0-0.001-0-0.003-0-0.004 0-0.007 0.001-0.015 0.002-0.022l-0 0.001c0.002-0.008 0.003-0.016 0.004-0.025 0.039-0.31-0.173-0.592-0.473-0.629-0.018-0.002-0.039-0.003-0.060-0.003-0.253 0-0.466 0.17-0.532 0.402l-0.001 0.004-0.508-0.388c0.113-0.092 0.189-0.224 0.208-0.375l0-0.003c-0-0.001-0-0.003-0-0.004 0-0.007 0.001-0.015 0.002-0.022l-0 0.001c0.002-0.008 0.003-0.016 0.004-0.025 0.039-0.31-0.173-0.592-0.473-0.629-0.018-0.002-0.039-0.003-0.060-0.003-0.254 0-0.468 0.171-0.532 0.404l-0.001 0.004-0.505-0.386c0.111-0.092 0.186-0.223 0.204-0.372l0-0.003c-0-0.001-0-0.003-0-0.004 0-0.007 0.001-0.015 0.002-0.022l-0 0.001c0.002-0.008 0.003-0.016 0.004-0.025 0.039-0.31-0.173-0.592-0.473-0.629-0.018-0.002-0.039-0.003-0.060-0.003-0.252 0-0.465 0.169-0.531 0.4l-0.001 0.004-0.505-0.386c0.11-0.092 0.186-0.223 0.204-0.371l0-0.003c-0-0.001-0-0.003-0-0.004 0-0.007 0.001-0.015 0.002-0.022l-0 0.001c0.002-0.008 0.003-0.016 0.004-0.025 0.039-0.31-0.173-0.592-0.473-0.629-0.018-0.002-0.039-0.003-0.060-0.003-0.252 0-0.464 0.169-0.531 0.399l-0.001 0.004-0.504-0.386c0.11-0.092 0.186-0.222 0.204-0.371l0-0.003c-0-0.001-0-0.003-0-0.004 0-0.007 0.001-0.015 0.002-0.022l-0 0.001c0.002-0.008 0.003-0.016 0.004-0.025 0.039-0.31-0.173-0.592-0.473-0.629-0.018-0.002-0.039-0.003-0.060-0.003-0.251 0-0.464 0.168-0.531 0.398l-0.001 0.004-0.503-0.384c0.108-0.092 0.182-0.221 0.2-0.368l0-0.003c-0-0.001-0-0.003-0-0.004 0-0.007 0.001-0.015 0.002-0.022l-0 0.001c0.002-0.008 0.003-0.016 0.004-0.025 0.039-0.31-0.173-0.591-0.474-0.629-0.018-0.002-0.039-0.003-0.060-0.003-0.25 0-0.461 0.166-0.529 0.394l-0.001 0.004-0.5-0.386c0.108-0.091 0.181-0.221 0.199-0.367l0-0.003c-0-0.001-0-0.003-0-0.004 0-0.007 0.001-0.015 0.002-0.022l-0 0.001c0.002-0.008 0.003-0.016 0.004-0.025 0.038-0.311-0.173-0.592-0.473-0.629-0.018-0.002-0.039-0.003-0.060-0.003-0.249 0-0.46 0.165-0.529 0.392l-0.001 0.004-0.492-0.376c0.063-0.091 0.101-0.204 0.101-0.326 0-0 0-0.001 0-0.001v0-0.050c0-0.313-0.245-0.566-0.547-0.566s-0.547 0.254-0.547 0.566v0.050c0 0.139 0.050 0.267 0.132 0.366l-0.001-0.001-0.516 0.395c-0.058-0.287-0.319-0.486-0.604-0.45-0.3 0.037-0.511 0.319-0.473 0.629 0.001 0.009 0.002 0.018 0.005 0.026l-0-0.001c0 0.008 0 0.017 0.002 0.025 0.021 0.168 0.111 0.312 0.242 0.403l0.002 0.001-0.532 0.407c-0.058-0.288-0.319-0.488-0.605-0.453-0.3 0.037-0.511 0.319-0.473 0.629 0.001 0.009 0.002 0.018 0.005 0.026l-0-0.001c0 0.008 0 0.017 0.002 0.025 0.021 0.169 0.112 0.313 0.244 0.404l0.002 0.001-0.533 0.409c-0.056-0.29-0.318-0.492-0.606-0.456-0.3 0.037-0.513 0.318-0.473 0.629 0.001 0.009 0.002 0.018 0.005 0.026l-0-0.001c0 0.008 0 0.017 0.002 0.025 0.021 0.17 0.114 0.315 0.247 0.406l0.002 0.001-0.536 0.409c-0.055-0.29-0.318-0.493-0.606-0.458-0.3 0.037-0.511 0.319-0.473 0.629 0.001 0.009 0.002 0.018 0.005 0.026l-0-0.001c0 0.008 0 0.017 0.002 0.025 0.021 0.171 0.114 0.317 0.248 0.408l0.002 0.001-0.536 0.409c-0.054-0.292-0.318-0.495-0.606-0.459-0.3 0.037-0.512 0.319-0.473 0.629 0.001 0.009 0.002 0.018 0.005 0.026l-0-0.001c0 0.008 0 0.017 0.002 0.025 0.021 0.171 0.114 0.317 0.248 0.408l0.002 0.001-0.537 0.411c-0.053-0.292-0.317-0.499-0.607-0.463-0.3 0.037-0.511 0.319-0.473 0.629 0.001 0.009 0.002 0.018 0.005 0.026l-0-0.001c0 0.008 0 0.017 0.002 0.025 0.021 0.172 0.116 0.319 0.252 0.409l0.002 0.001-0.54 0.413c-0.053-0.292-0.318-0.497-0.607-0.461-0.3 0.037-0.512 0.319-0.473 0.629 0.001 0.009 0.002 0.018 0.005 0.026l-0-0.001c0 0.008 0 0.017 0.002 0.025 0.021 0.171 0.115 0.317 0.25 0.408l0.002 0.001-0.538 0.412c-0.051-0.295-0.317-0.502-0.607-0.467-0.3 0.037-0.512 0.319-0.473 0.629 0.001 0.009 0.002 0.018 0.005 0.026l-0-0.001c0.001 0.008 0 0.017 0.002 0.025 0.021 0.173 0.117 0.321 0.254 0.411l0.002 0.001-0.542 0.415c-0.052-0.295-0.317-0.5-0.607-0.465-0.301 0.037-0.512 0.319-0.473 0.629 0.001 0.009 0.002 0.018 0.005 0.026l-0-0.001c0.001 0.008 0 0.017 0.002 0.025 0.021 0.173 0.117 0.32 0.253 0.411l0.002 0.001-0.772 0.595c-0.089-0.189-0.278-0.318-0.498-0.318-0.022 0-0.043 0.001-0.064 0.004l0.003-0c-0.3 0.037-0.511 0.318-0.473 0.629 0.001 0.009 0.002 0.018 0.005 0.026l-0-0.001c0 0.008 0 0.017 0.002 0.025 0.026 0.218 0.173 0.397 0.371 0.468l0.004 0.001c-0.081 0.217-0.129 0.467-0.129 0.728 0 0.023 0 0.046 0.001 0.068l-0-0.003c-0.081-0.083-0.189-0.139-0.31-0.154l-0.003-0c-0.299-0.038-0.573 0.184-0.612 0.495 0 0.001 0 0.003 0 0.004 0 0.007-0.001 0.015-0.002 0.022l0-0.001c-0.002 0.008-0.003 0.016-0.004 0.025-0.039 0.31 0.173 0.592 0.473 0.629 0.019 0.002 0.041 0.004 0.064 0.004 0.155 0 0.295-0.066 0.393-0.17l0-0c0 0.002 0 0.005 0 0.007 0 0.276 0.054 0.54 0.151 0.781l-0.005-0.014c-0.19 0.078-0.327 0.25-0.353 0.457l-0 0.003c0 0.001 0 0.003 0 0.004 0 0.007-0.001 0.015-0.002 0.022l0-0.001c-0.002 0.008-0.003 0.016-0.004 0.025-0.039 0.31 0.173 0.592 0.473 0.629 0.018 0.002 0.040 0.003 0.061 0.003 0.221 0 0.411-0.13 0.498-0.319l0.001-0.003 0.775 0.594c-0.141 0.091-0.238 0.24-0.259 0.412l-0 0.003c0 0.001 0 0.003 0 0.004 0 0.007-0.001 0.015-0.002 0.022l0-0.001c-0.002 0.008-0.003 0.016-0.004 0.025-0.039 0.31 0.173 0.592 0.473 0.629 0.292 0.036 0.558-0.173 0.608-0.47l0.545 0.417c-0.141 0.091-0.239 0.24-0.26 0.412l-0 0.003c0 0.001 0 0.003 0 0.004 0 0.007-0.001 0.015-0.002 0.022l0-0.001c-0.002 0.008-0.003 0.016-0.004 0.025-0.039 0.31 0.173 0.592 0.473 0.629 0.292 0.036 0.559-0.173 0.608-0.471l0.542 0.414c-0.139 0.092-0.235 0.239-0.256 0.41l-0 0.003c0 0.001 0 0.003 0 0.004 0 0.007-0.001 0.015-0.002 0.022l0-0.001c-0.002 0.008-0.003 0.016-0.004 0.025-0.039 0.31 0.173 0.592 0.473 0.629 0.29 0.036 0.555-0.171 0.607-0.466l0.543 0.415c-0.14 0.091-0.237 0.239-0.258 0.41l-0 0.003c0 0.001 0 0.003 0 0.004 0 0.007-0.001 0.015-0.002 0.022l0-0.001c-0.002 0.008-0.003 0.016-0.004 0.025-0.039 0.31 0.173 0.592 0.473 0.629 0.292 0.036 0.557-0.172 0.608-0.467l0.54 0.413c-0.138 0.092-0.234 0.239-0.255 0.409l-0 0.003c0 0.001 0 0.003 0 0.004 0 0.007-0.001 0.015-0.002 0.022l0-0.001c-0.002 0.008-0.003 0.016-0.004 0.025-0.039 0.31 0.173 0.592 0.473 0.629 0.29 0.036 0.555-0.17 0.607-0.464l0.539 0.413c-0.137 0.091-0.232 0.237-0.253 0.406l-0 0.003c0 0.001 0 0.003 0 0.004 0 0.007-0.001 0.015-0.002 0.022l0-0.001c-0.002 0.008-0.003 0.016-0.004 0.025-0.039 0.31 0.173 0.592 0.473 0.629 0.289 0.036 0.555-0.169 0.607-0.462l0.539 0.412c-0.136 0.092-0.23 0.238-0.251 0.406l-0 0.003c0 0.001 0 0.003 0 0.004 0 0.007-0.001 0.015-0.002 0.022l0-0.001c-0.002 0.008-0.003 0.016-0.004 0.025-0.039 0.31 0.173 0.592 0.473 0.629 0.289 0.036 0.553-0.169 0.607-0.461l0.536 0.409c-0.136 0.092-0.229 0.238-0.249 0.406l-0 0.003c0 0.001 0 0.003 0 0.004 0 0.007-0.001 0.015-0.002 0.022l0-0.001c-0.002 0.008-0.003 0.016-0.004 0.025-0.039 0.31 0.173 0.592 0.473 0.629 0.287 0.036 0.551-0.167 0.606-0.457l0.535 0.409c-0.136 0.092-0.229 0.238-0.249 0.406l-0 0.003c0 0.001 0 0.003 0 0.004 0 0.007-0.001 0.015-0.002 0.022l0-0.001c-0.002 0.008-0.003 0.016-0.004 0.025-0.037 0.311 0.175 0.591 0.474 0.629 0.287 0.036 0.549-0.166 0.605-0.455l0.517 0.396c-0.083 0.099-0.133 0.227-0.133 0.368 0 0.001 0 0.001 0 0.002v-0 0.050c0 0.313 0.245 0.566 0.547 0.566s0.547-0.254 0.547-0.566v-0.050c0-0 0-0.001 0-0.002 0-0.14-0.050-0.269-0.134-0.369l0.001 0.001 0.51-0.39c0.058 0.286 0.32 0.484 0.604 0.449 0.3-0.037 0.512-0.319 0.473-0.629-0.001-0.009-0.002-0.018-0.005-0.026l0 0.001c-0.001-0.008 0-0.017-0.002-0.025-0.021-0.168-0.111-0.311-0.241-0.402l-0.002-0.001 0.531-0.406c0.058 0.287 0.319 0.487 0.605 0.451 0.3-0.037 0.511-0.319 0.473-0.629-0.001-0.009-0.002-0.018-0.005-0.026l0 0.001c-0.001-0.008 0-0.017-0.002-0.025-0.021-0.169-0.113-0.313-0.244-0.403l-0.002-0.001 0.533-0.409c0.056 0.289 0.319 0.491 0.605 0.455 0.3-0.037 0.512-0.319 0.473-0.629-0.001-0.008-0.002-0.016-0.004-0.023l0 0.001c-0.001-0.008 0-0.017-0.002-0.025-0.021-0.17-0.113-0.315-0.246-0.405l-0.002-0.001 0.535-0.409c0.055 0.29 0.318 0.492 0.606 0.456 0.3-0.037 0.512-0.319 0.473-0.629-0.001-0.009-0.002-0.018-0.005-0.026l0 0.001c-0.001-0.008 0-0.017-0.002-0.025-0.020-0.171-0.113-0.317-0.246-0.408l-0.002-0.001 0.536-0.409c0.055 0.292 0.318 0.493 0.606 0.458 0.3-0.037 0.512-0.319 0.473-0.629-0.001-0.009-0.002-0.018-0.005-0.026l0 0.001c-0.001-0.008 0-0.017-0.002-0.025-0.021-0.171-0.114-0.317-0.248-0.408l-0.002-0.001 0.536-0.409c0.053 0.292 0.318 0.497 0.607 0.462 0.3-0.037 0.511-0.319 0.473-0.629-0.001-0.009-0.002-0.018-0.005-0.026l0 0.001c-0.001-0.008 0-0.017-0.002-0.025-0.021-0.172-0.116-0.318-0.251-0.408l-0.002-0.001 0.539-0.413c0.054 0.292 0.318 0.497 0.606 0.46 0.3-0.037 0.511-0.319 0.473-0.629-0.001-0.009-0.002-0.018-0.005-0.026l0 0.001c-0.001-0.008 0-0.017-0.002-0.025-0.021-0.171-0.115-0.317-0.249-0.408l-0.002-0.001 0.497-0.38c0.048 0.299 0.316 0.51 0.609 0.473 0.3-0.037 0.512-0.319 0.473-0.629-0.001-0.009-0.002-0.018-0.005-0.026l0 0.001c-0.001-0.008 0-0.017-0.002-0.025-0.022-0.176-0.12-0.325-0.261-0.414l-0.002-0.001 0.545-0.421c0.049 0.299 0.316 0.509 0.608 0.472 0.3-0.037 0.511-0.319 0.473-0.629-0.001-0.009-0.002-0.018-0.005-0.026l0 0.001c-0.001-0.008 0-0.017-0.002-0.025-0.022-0.176-0.12-0.325-0.261-0.414l-0.002-0.001 0.776-0.593c0.088 0.193 0.279 0.325 0.501 0.325 0.022 0 0.043-0.001 0.064-0.004l-0.003 0c0.3-0.037 0.512-0.319 0.473-0.629-0.001-0.009-0.002-0.018-0.005-0.026l0 0.001c-0.001-0.008 0-0.017-0.002-0.025-0.023-0.201-0.148-0.368-0.32-0.451l-0.003-0.001c0.097-0.218 0.157-0.471 0.165-0.737l0-0.003c0.093 0.078 0.213 0.126 0.345 0.126 0.022 0 0.044-0.001 0.066-0.004l-0.003 0c0.301-0.036 0.513-0.317 0.474-0.628zM29.12 17.334l-12.92 9.82c-0.044 0.047-0.107 0.076-0.177 0.076-0.065 0-0.123-0.025-0.167-0.066l0 0-0.010-0.010-12.92-9.82c-0.227-0.173-0.38-0.609-0.38-1.087v-0.139c0-0.477 0.153-0.914 0.38-1.087l12.92-9.819c0.044-0.047 0.107-0.076 0.177-0.076 0.065 0 0.123 0.025 0.167 0.066l-0-0 0.010 0.010 12.92 9.82c0.227 0.173 0.38 0.609 0.38 1.087v0.137c0 0.478-0.152 0.915-0.38 1.087z"></path>
<path fill="#999" d="M29.567 13.842v-0.002l-13.157-10.063c0.015-0.069 0.024-0.149 0.024-0.23 0-0.128-0.022-0.252-0.062-0.367l0.002 0.008c-0.065-0.179-0.189-0.316-0.335-0.324h-0.023c-0.146 0.008-0.27 0.146-0.335 0.324-0.038 0.107-0.059 0.23-0.059 0.359 0 0.082 0.009 0.161 0.025 0.238l-0.001-0.007-13.156 10.065c-0.914 0.73-0.643 1.899-0.633 1.944-0.011 0.044-0.282 1.213 0.633 1.944v0.002l13.156 10.063c-0.015 0.069-0.024 0.149-0.024 0.23 0 0.128 0.022 0.252 0.062 0.367l-0.002-0.008c0.065 0.179 0.189 0.316 0.335 0.324h0.023c0.146-0.008 0.27-0.146 0.335-0.324 0.038-0.107 0.059-0.23 0.059-0.359 0-0.082-0.009-0.161-0.025-0.238l0.001 0.007 13.156-10.065c0.915-0.73 0.643-1.899 0.633-1.944 0.012-0.044 0.283-1.213-0.632-1.944zM29.503 15.808v0.046c0 0.477-0.153 0.914-0.38 1.087l-12.919 9.821c-0.044 0.047-0.107 0.076-0.177 0.076-0.065 0-0.123-0.025-0.167-0.066l0 0-0.010-0.010-12.92-9.82c-0.227-0.173-0.38-0.609-0.38-1.087v-0.137c0-0.477 0.153-0.914 0.38-1.087l12.92-9.823c0.044-0.047 0.107-0.076 0.177-0.076 0.065 0 0.123 0.025 0.167 0.066l-0-0 0.010 0.010 12.919 9.821c0.227 0.173 0.38 0.609 0.38 1.087v0.091z"></path>
<path opacity="0.3" fill="#000" d="M16.574 28.14c0 0.313-0.245 0.566-0.547 0.566s-0.547-0.253-0.547-0.566c0-0.313 0.245-0.566 0.547-0.566s0.547 0.253 0.547 0.566z"></path>
<path d="M16.574 28.191c0 0.313-0.245 0.566-0.547 0.566s-0.547-0.253-0.547-0.566c0-0.313 0.245-0.566 0.547-0.566s0.547 0.253 0.547 0.566z"></path>
<path opacity="0.3" fill="#000" d="M28.859 18.89c0.038 0.31-0.173 0.592-0.473 0.629s-0.574-0.184-0.612-0.495c-0.038-0.31 0.173-0.592 0.473-0.629s0.574 0.184 0.612 0.495z"></path>
<path d="M28.865 18.939c0.038 0.31-0.173 0.592-0.473 0.629s-0.574-0.184-0.612-0.495c-0.038-0.31 0.173-0.592 0.473-0.629s0.574 0.184 0.612 0.495z"></path>
<path opacity="0.3" fill="#000" d="M30.402 17.522c0.038 0.31-0.173 0.592-0.473 0.629s-0.574-0.184-0.612-0.495c-0.038-0.31 0.173-0.592 0.473-0.629s0.574 0.184 0.612 0.495z"></path>
<path d="M30.408 17.572c0.038 0.31-0.173 0.592-0.473 0.629s-0.574-0.184-0.612-0.495c-0.038-0.31 0.173-0.592 0.473-0.629s0.574 0.184 0.612 0.495z"></path>
<path opacity="0.3" fill="#000" d="M31.118 15.775c0.038 0.31-0.173 0.592-0.473 0.629s-0.574-0.184-0.612-0.495c-0.038-0.31 0.173-0.592 0.473-0.629s0.574 0.184 0.612 0.495z"></path>
<path d="M31.127 15.825c0.038 0.31-0.173 0.592-0.473 0.629s-0.574-0.184-0.612-0.495c-0.038-0.31 0.173-0.592 0.473-0.629s0.574 0.184 0.612 0.495z"></path>
<path opacity="0.3" fill="#000" d="M27.5 19.93c0.038 0.31-0.173 0.592-0.473 0.629s-0.574-0.184-0.612-0.495c-0.038-0.31 0.173-0.592 0.473-0.629s0.574 0.184 0.612 0.495z"></path>
<path d="M27.506 19.98c0.038 0.31-0.173 0.592-0.473 0.629s-0.574-0.184-0.612-0.495c-0.038-0.31 0.173-0.592 0.473-0.629s0.574 0.184 0.612 0.495z"></path>
<path opacity="0.3" fill="#000" d="M26.18 20.924c0.038 0.31-0.173 0.592-0.473 0.629s-0.574-0.184-0.612-0.495c-0.038-0.31 0.173-0.592 0.473-0.629s0.574 0.184 0.612 0.495z"></path>
<path d="M26.186 20.974c0.038 0.31-0.173 0.592-0.473 0.629s-0.574-0.184-0.612-0.495c-0.038-0.31 0.173-0.592 0.473-0.629s0.574 0.184 0.612 0.495z"></path>
<path opacity="0.3" fill="#000" d="M24.82 21.967c0.038 0.31-0.173 0.592-0.473 0.629s-0.574-0.184-0.612-0.495c-0.038-0.31 0.173-0.592 0.473-0.629s0.574 0.184 0.612 0.495z"></path>
<path d="M24.826 22.017c0.038 0.31-0.173 0.592-0.473 0.629s-0.574-0.184-0.612-0.495c-0.038-0.31 0.173-0.592 0.473-0.629s0.574 0.184 0.612 0.495z"></path>
<path opacity="0.3" fill="#000" d="M23.46 23.002c0.038 0.31-0.173 0.592-0.473 0.629s-0.574-0.184-0.612-0.495c-0.038-0.31 0.173-0.592 0.473-0.629s0.574 0.184 0.612 0.495z"></path>
<path d="M23.466 23.052c0.038 0.31-0.173 0.592-0.473 0.629s-0.574-0.184-0.612-0.495c-0.038-0.31 0.173-0.592 0.473-0.629s0.574 0.184 0.612 0.495z"></path>
<path opacity="0.3" fill="#000" d="M22.1 24.040c0.038 0.31-0.173 0.592-0.473 0.629s-0.574-0.184-0.612-0.495c-0.038-0.31 0.173-0.592 0.473-0.629s0.574 0.184 0.612 0.495z"></path>
<path d="M22.106 24.090c0.038 0.31-0.173 0.592-0.473 0.629s-0.574-0.184-0.612-0.495c-0.038-0.31 0.173-0.592 0.473-0.629s0.574 0.184 0.612 0.495z"></path>
<path opacity="0.3" fill="#000" d="M20.74 25.079c0.038 0.31-0.173 0.592-0.473 0.629s-0.574-0.184-0.612-0.495c-0.038-0.31 0.173-0.592 0.473-0.629s0.574 0.184 0.612 0.495z"></path>
<path d="M20.747 25.129c0.038 0.31-0.173 0.592-0.473 0.629s-0.574-0.184-0.612-0.495c-0.038-0.31 0.173-0.592 0.473-0.629s0.574 0.184 0.612 0.495z"></path>
<path opacity="0.3" fill="#000" d="M19.38 26.115c0.038 0.31-0.173 0.592-0.473 0.629s-0.574-0.184-0.612-0.495c-0.038-0.31 0.173-0.592 0.473-0.629s0.574 0.184 0.612 0.495z"></path>
<path d="M19.387 26.165c0.038 0.31-0.173 0.592-0.473 0.629s-0.574-0.184-0.612-0.495c-0.038-0.31 0.173-0.592 0.473-0.629s0.574 0.184 0.612 0.495z"></path>
<path opacity="0.3" fill="#000" d="M18.020 27.153c0.038 0.31-0.173 0.592-0.473 0.629s-0.574-0.184-0.612-0.495c-0.038-0.31 0.173-0.592 0.473-0.629s0.574 0.184 0.612 0.495z"></path>
<path d="M18.026 27.203c0.038 0.31-0.173 0.592-0.473 0.629s-0.574-0.184-0.612-0.495c-0.038-0.31 0.173-0.592 0.473-0.629s0.574 0.184 0.612 0.495z"></path>
<path opacity="0.3" fill="#000" d="M3.758 18.352c0.3 0.037 0.511 0.319 0.473 0.629s-0.312 0.532-0.612 0.495c-0.3-0.037-0.511-0.319-0.473-0.629s0.312-0.532 0.612-0.495z"></path>
<path d="M3.752 18.401c0.3 0.037 0.511 0.319 0.473 0.629s-0.312 0.532-0.612 0.495c-0.3-0.037-0.511-0.319-0.473-0.629s0.312-0.532 0.612-0.495z"></path>
<path opacity="0.3" fill="#000" d="M2.215 16.984c0.3 0.037 0.511 0.319 0.473 0.629s-0.312 0.532-0.612 0.495c-0.3-0.037-0.511-0.319-0.473-0.629s0.312-0.532 0.612-0.495z"></path>
<path d="M2.209 17.034c0.3 0.037 0.511 0.319 0.473 0.629s-0.312 0.532-0.612 0.495c-0.3-0.037-0.511-0.319-0.473-0.629s0.312-0.532 0.612-0.495z"></path>
<path opacity="0.3" fill="#000" d="M1.498 15.237c0.3 0.037 0.511 0.319 0.473 0.629s-0.312 0.532-0.612 0.495c-0.3-0.037-0.511-0.319-0.473-0.629s0.312-0.532 0.612-0.495z"></path>
<path d="M1.492 15.287c0.3 0.037 0.511 0.319 0.473 0.629s-0.312 0.532-0.612 0.495c-0.3-0.037-0.511-0.319-0.473-0.629s0.312-0.532 0.612-0.495z"></path>
<path opacity="0.3" fill="#000" d="M5.117 19.392c0.3 0.037 0.511 0.319 0.473 0.629s-0.312 0.532-0.612 0.495c-0.3-0.037-0.511-0.319-0.473-0.629s0.312-0.532 0.612-0.495z"></path>
<path d="M5.111 19.443c0.3 0.037 0.511 0.319 0.473 0.629s-0.312 0.532-0.612 0.495c-0.3-0.037-0.511-0.319-0.473-0.629s0.312-0.532 0.612-0.495z"></path>
<path opacity="0.3" fill="#000" d="M6.478 20.427c0.3 0.037 0.511 0.319 0.473 0.629s-0.312 0.532-0.612 0.495c-0.3-0.037-0.511-0.319-0.473-0.629s0.312-0.532 0.612-0.495z"></path>
<path d="M6.471 20.477c0.3 0.037 0.511 0.319 0.473 0.629s-0.312 0.532-0.612 0.495c-0.3-0.037-0.511-0.319-0.473-0.629s0.312-0.532 0.612-0.495z"></path>
<path opacity="0.3" fill="#000" d="M7.836 21.469c0.3 0.037 0.511 0.319 0.473 0.629s-0.312 0.532-0.612 0.495c-0.3-0.037-0.511-0.319-0.473-0.629s0.312-0.532 0.612-0.495z"></path>
<path d="M7.83 21.519c0.3 0.037 0.511 0.319 0.473 0.629s-0.312 0.532-0.612 0.495c-0.3-0.037-0.511-0.319-0.473-0.629s0.312-0.532 0.612-0.495z"></path>
<path opacity="0.3" fill="#000" d="M9.197 22.504c0.3 0.037 0.511 0.319 0.473 0.629s-0.312 0.532-0.612 0.495c-0.3-0.037-0.511-0.319-0.473-0.629s0.312-0.532 0.612-0.495z"></path>
<path d="M9.191 22.554c0.3 0.037 0.511 0.319 0.473 0.629s-0.312 0.532-0.612 0.495c-0.3-0.037-0.511-0.319-0.473-0.629s0.312-0.532 0.612-0.495z"></path>
<path opacity="0.3" fill="#000" d="M10.556 23.542c0.3 0.037 0.511 0.319 0.473 0.629s-0.312 0.532-0.612 0.495c-0.3-0.037-0.511-0.319-0.473-0.629s0.312-0.532 0.612-0.495z"></path>
<path d="M10.55 23.592c0.3 0.037 0.511 0.319 0.473 0.629s-0.312 0.532-0.612 0.495c-0.3-0.037-0.511-0.319-0.473-0.629s0.312-0.532 0.612-0.495z"></path>
<path opacity="0.3" fill="#000" d="M11.916 24.581c0.3 0.037 0.511 0.319 0.473 0.629s-0.312 0.532-0.612 0.495c-0.3-0.037-0.511-0.319-0.473-0.629s0.312-0.532 0.612-0.495z"></path>
<path d="M11.909 24.631c0.3 0.037 0.511 0.319 0.473 0.629s-0.312 0.532-0.612 0.495c-0.3-0.037-0.511-0.319-0.473-0.629s0.312-0.532 0.612-0.495z"></path>
<path opacity="0.3" fill="#000" d="M13.276 25.617c0.3 0.037 0.511 0.319 0.473 0.629s-0.312 0.532-0.612 0.495c-0.3-0.037-0.511-0.319-0.473-0.629s0.312-0.532 0.612-0.495z"></path>
<path d="M13.27 25.667c0.3 0.037 0.511 0.319 0.473 0.629s-0.312 0.532-0.612 0.495c-0.3-0.037-0.511-0.319-0.473-0.629s0.312-0.532 0.612-0.495z"></path>
<path opacity="0.3" fill="#000" d="M14.636 26.655c0.3 0.037 0.511 0.319 0.473 0.629s-0.312 0.532-0.612 0.495c-0.3-0.037-0.511-0.319-0.473-0.629s0.312-0.532 0.612-0.495z"></path>
<path d="M14.63 26.705c0.3 0.037 0.511 0.319 0.473 0.629s-0.312 0.532-0.612 0.495c-0.3-0.037-0.511-0.319-0.473-0.629s0.312-0.532 0.612-0.495z"></path>
<path opacity="0.3" fill="#000" d="M16.534 3.469c0 0.313-0.245 0.566-0.547 0.566s-0.547-0.253-0.547-0.566c0-0.313 0.245-0.566 0.547-0.566s0.547 0.253 0.547 0.566z"></path>
<path d="M16.534 3.419c0 0.313-0.245 0.566-0.547 0.566s-0.547-0.253-0.547-0.566c0-0.313 0.245-0.566 0.547-0.566s0.547 0.253 0.547 0.566z"></path>
<path opacity="0.3" fill="#000" d="M28.385 12.132c0.3 0.037 0.511 0.319 0.473 0.629s-0.312 0.532-0.612 0.495c-0.3-0.037-0.511-0.319-0.473-0.629s0.312-0.532 0.612-0.495z"></path>
<path d="M28.391 12.082c0.3 0.037 0.511 0.319 0.473 0.629s-0.312 0.532-0.612 0.495c-0.3-0.037-0.511-0.319-0.473-0.629s0.312-0.532 0.612-0.495z"></path>
<path opacity="0.3" fill="#000" d="M29.928 13.499c0.3 0.037 0.511 0.319 0.473 0.629s-0.312 0.532-0.612 0.495c-0.3-0.037-0.511-0.319-0.473-0.629s0.312-0.532 0.612-0.495z"></path>
<path d="M29.934 13.449c0.3 0.037 0.511 0.319 0.473 0.629s-0.312 0.532-0.612 0.495c-0.3-0.037-0.511-0.319-0.473-0.629s0.312-0.532 0.612-0.495z"></path>
<path opacity="0.3" fill="#000" d="M27.026 11.091c0.3 0.037 0.511 0.319 0.473 0.629s-0.312 0.532-0.612 0.495c-0.3-0.037-0.511-0.319-0.473-0.629s0.312-0.532 0.612-0.495z"></path>
<path d="M27.032 11.042c0.3 0.037 0.511 0.319 0.473 0.629s-0.312 0.532-0.612 0.495c-0.3-0.037-0.511-0.319-0.473-0.629s0.312-0.532 0.612-0.495z"></path>
<path opacity="0.3" fill="#000" d="M25.666 10.057c0.3 0.037 0.511 0.319 0.473 0.629s-0.312 0.532-0.612 0.495c-0.3-0.037-0.511-0.319-0.473-0.629s0.312-0.532 0.612-0.495z"></path>
<path d="M25.672 10.006c0.3 0.037 0.511 0.319 0.473 0.629s-0.312 0.532-0.612 0.495c-0.3-0.037-0.511-0.319-0.473-0.629s0.312-0.532 0.612-0.495z"></path>
<path opacity="0.3" fill="#000" d="M24.307 9.015c0.3 0.037 0.511 0.319 0.473 0.629s-0.312 0.532-0.612 0.495c-0.3-0.037-0.511-0.319-0.473-0.629s0.312-0.532 0.612-0.495z"></path>
<path d="M24.313 8.964c0.3 0.037 0.511 0.319 0.473 0.629s-0.312 0.532-0.612 0.495c-0.3-0.037-0.511-0.319-0.473-0.629s0.312-0.532 0.612-0.495z"></path>
<path opacity="0.3" fill="#000" d="M22.947 7.979c0.3 0.037 0.511 0.319 0.473 0.629s-0.312 0.532-0.612 0.495c-0.3-0.037-0.511-0.319-0.473-0.629s0.312-0.532 0.612-0.495z"></path>
<path d="M22.953 7.929c0.3 0.037 0.511 0.319 0.473 0.629s-0.312 0.532-0.612 0.495c-0.3-0.037-0.511-0.319-0.473-0.629s0.312-0.532 0.612-0.495z"></path>
<path opacity="0.3" fill="#000" d="M21.587 6.941c0.3 0.037 0.511 0.319 0.473 0.629s-0.312 0.532-0.612 0.495c-0.3-0.037-0.511-0.319-0.473-0.629s0.312-0.532 0.612-0.495z"></path>
<path d="M21.593 6.891c0.3 0.037 0.511 0.319 0.473 0.629s-0.312 0.532-0.612 0.495c-0.3-0.037-0.511-0.319-0.473-0.629s0.312-0.532 0.612-0.495z"></path>
<path opacity="0.3" fill="#000" d="M20.227 5.902c0.3 0.037 0.511 0.319 0.473 0.629s-0.312 0.532-0.612 0.495c-0.3-0.037-0.511-0.319-0.473-0.629s0.312-0.532 0.612-0.495z"></path>
<path d="M20.233 5.852c0.3 0.037 0.511 0.319 0.473 0.629s-0.312 0.532-0.612 0.495c-0.3-0.037-0.511-0.319-0.473-0.629s0.312-0.532 0.612-0.495z"></path>
<path opacity="0.3" fill="#000" d="M18.867 4.866c0.3 0.037 0.511 0.319 0.473 0.629s-0.312 0.532-0.612 0.495c-0.3-0.037-0.511-0.319-0.473-0.629s0.312-0.532 0.612-0.495z"></path>
<path d="M18.874 4.816c0.3 0.037 0.511 0.319 0.473 0.629s-0.312 0.532-0.612 0.495c-0.3-0.037-0.511-0.319-0.473-0.629s0.312-0.532 0.612-0.495z"></path>
<path opacity="0.3" fill="#000" d="M17.507 3.828c0.3 0.037 0.511 0.319 0.473 0.629s-0.312 0.532-0.612 0.495c-0.3-0.037-0.511-0.319-0.473-0.629s0.312-0.532 0.612-0.495z"></path>
<path d="M17.514 3.779c0.3 0.037 0.511 0.319 0.473 0.629s-0.312 0.532-0.612 0.495c-0.3-0.037-0.511-0.319-0.473-0.629s0.312-0.532 0.612-0.495z"></path>
<path opacity="0.3" fill="#000" d="M4.19 12.628c0.038 0.31-0.173 0.592-0.473 0.629s-0.574-0.184-0.612-0.495c-0.038-0.31 0.173-0.592 0.473-0.629s0.574 0.184 0.612 0.495z"></path>
<path d="M4.184 12.578c0.038 0.31-0.173 0.592-0.473 0.629s-0.574-0.184-0.612-0.495c-0.038-0.31 0.173-0.592 0.473-0.629s0.574 0.184 0.612 0.495z"></path>
<path opacity="0.3" fill="#000" d="M2.647 13.995c0.038 0.31-0.173 0.592-0.473 0.629s-0.574-0.184-0.612-0.495c-0.038-0.31 0.173-0.592 0.473-0.629s0.574 0.184 0.612 0.495z"></path>
<path d="M2.64 13.945c0.038 0.31-0.173 0.592-0.473 0.629s-0.574-0.184-0.612-0.495c-0.038-0.31 0.173-0.592 0.473-0.629s0.574 0.184 0.612 0.495z"></path>
<path opacity="0.3" fill="#000" d="M5.549 11.587c0.038 0.31-0.173 0.592-0.473 0.629s-0.574-0.184-0.612-0.495c-0.038-0.31 0.173-0.592 0.473-0.629s0.574 0.184 0.612 0.495z"></path>
<path d="M5.543 11.537c0.038 0.31-0.173 0.592-0.473 0.629s-0.574-0.184-0.612-0.495c-0.038-0.31 0.173-0.592 0.473-0.629s0.574 0.184 0.612 0.495z"></path>
<path opacity="0.3" fill="#000" d="M6.91 10.553c0.038 0.31-0.173 0.592-0.473 0.629s-0.574-0.184-0.612-0.495c-0.038-0.31 0.173-0.592 0.473-0.629s0.574 0.184 0.612 0.495z"></path>
<path d="M6.904 10.503c0.038 0.31-0.173 0.592-0.473 0.629s-0.574-0.184-0.612-0.495c-0.038-0.31 0.173-0.592 0.473-0.629s0.574 0.184 0.612 0.495z"></path>
<path opacity="0.3" fill="#000" d="M8.269 9.51c0.038 0.31-0.173 0.592-0.473 0.629s-0.574-0.184-0.612-0.495c-0.038-0.31 0.173-0.592 0.473-0.629s0.574 0.184 0.612 0.495z"></path>
<path d="M8.263 9.46c0.038 0.31-0.173 0.592-0.473 0.629s-0.574-0.184-0.612-0.495c-0.038-0.31 0.173-0.592 0.473-0.629s0.574 0.184 0.612 0.495z"></path>
<path opacity="0.3" fill="#000" d="M9.63 8.475c0.038 0.31-0.173 0.592-0.473 0.629s-0.574-0.184-0.612-0.495c-0.038-0.31 0.173-0.592 0.473-0.629s0.574 0.184 0.612 0.495z"></path>
<path d="M9.623 8.425c0.038 0.31-0.173 0.592-0.473 0.629s-0.574-0.184-0.612-0.495c-0.038-0.31 0.173-0.592 0.473-0.629s0.574 0.184 0.612 0.495z"></path>
<path opacity="0.3" fill="#000" d="M10.989 7.437c0.038 0.31-0.173 0.592-0.473 0.629s-0.574-0.184-0.612-0.495c-0.038-0.31 0.173-0.592 0.473-0.629s0.574 0.184 0.612 0.495z"></path>
<path d="M10.945 7.405c0.038 0.31-0.174 0.59-0.473 0.626s-0.572-0.185-0.609-0.495c-0.038-0.31 0.174-0.59 0.473-0.626s0.572 0.185 0.609 0.495z"></path>
<path opacity="0.3" fill="#000" d="M12.349 6.398c0.038 0.31-0.173 0.592-0.473 0.629s-0.574-0.184-0.612-0.495c-0.038-0.31 0.173-0.592 0.473-0.629s0.574 0.184 0.612 0.495z"></path>
<path d="M12.343 6.348c0.038 0.31-0.173 0.592-0.473 0.629s-0.574-0.184-0.612-0.495c-0.038-0.31 0.173-0.592 0.473-0.629s0.574 0.184 0.612 0.495z"></path>
<path opacity="0.3" fill="#000" d="M13.709 5.362c0.038 0.31-0.173 0.592-0.473 0.629s-0.574-0.184-0.612-0.495c-0.038-0.31 0.173-0.592 0.473-0.629s0.574 0.184 0.612 0.495z"></path>
<path d="M13.703 5.312c0.038 0.31-0.173 0.592-0.473 0.629s-0.574-0.184-0.612-0.495c-0.038-0.31 0.173-0.592 0.473-0.629s0.574 0.184 0.612 0.495z"></path>
<path opacity="0.3" fill="#000" d="M15.069 4.324c0.038 0.31-0.173 0.592-0.473 0.629s-0.574-0.184-0.612-0.495c-0.038-0.31 0.173-0.592 0.473-0.629s0.574 0.184 0.612 0.495z"></path>
<path d="M15.063 4.274c0.038 0.31-0.173 0.592-0.473 0.629s-0.574-0.184-0.612-0.495c-0.038-0.31 0.173-0.592 0.473-0.629s0.574 0.184 0.612 0.495z"></path>
<path opacity="0.3" fill="#000" d="M7.017 15.249l1.247 2.045s1.061-1.817 1.254-2.104c0.117-0.175 0.226-0.161 0.316-0.084v-0.185c-0.17 0.042-0.311 0.145-0.401 0.283l-0.002 0.003-1.156 1.968-1.163-1.968c-0.088-0.155-0.189-0.242-0.346-0.281v0.292c0.116-0.026 0.25 0.031 0.25 0.031z"></path>
<path opacity="0.3" fill="#000" d="M10.331 14.96v3.801h-0.497v-2.779c-0.088 0.227-0.18 0.42-0.18 0.42s-0.9 1.592-1.455 1.592c-0.43 0-1.136-1.402-1.432-2.031v2.843h-0.643v-3.779c-0.108 0.103-0.161 0.276-0.161 0.549v3.228c0 0.429 0.202 0.605 0.498 0.605 0.284 0 0.497-0.175 0.497-0.605l-0.032-2.001 0.929 1.578c0.078 0.11 0.175 0.182 0.286 0.201 0.027 0.004 0.057 0.007 0.089 0.007 0.005 0 0.011-0 0.016-0l-0.001 0c0.005 0 0.011 0 0.017 0 0.029 0 0.057-0.002 0.084-0.007l-0.003 0c0.117-0.020 0.214-0.091 0.299-0.201l0.922-1.578-0.032 1.984c0 0.454 0.227 0.641 0.526 0.641 0.314 0 0.534-0.187 0.534-0.641v-3.21c0.002-0.346-0.086-0.532-0.261-0.617z"></path>
<path opacity="0.3" fill="#000" d="M19.020 14.901c-0.292 0-0.515 0.182-0.515 0.619l0.029 1.791 0.003 0.192-1.559-2.286c-0.162-0.227-0.357-0.344-0.572-0.344-0.318 0-0.507 0.188-0.507 0.5v3.425c0 0.443 0.209 0.626 0.515 0.626 0.292 0 0.515-0.182 0.515-0.626l-0.032-1.938 1.552 2.241c0.162 0.234 0.357 0.351 0.578 0.351 0.318 0 0.507-0.188 0.507-0.5v-3.432c-0-0.437-0.222-0.619-0.515-0.619zM19.256 18.767c-0.155 0-0.456 0.418-1.514-1.426s-0.977-1.147-0.977-1.147 0.1 2.379-0.146 2.487c0 0-0.386 0.247-0.445 0.027s-0.029-3.72 0.048-3.773 0.328-0.038 0.397 0.043 2.149 2.937 2.149 2.937l0.086-2.942s0.343-0.161 0.402 0.102 0.156 3.693 0.001 3.693z"></path>
<path opacity="0.3" fill="#000" d="M20.661 14.906c-0.306 0-0.515 0.163-0.515 0.677v3.218c0 0.443 0.208 0.625 0.514 0.625 0.292 0 0.514-0.182 0.514-0.625v-3.276c0.001-0.437-0.221-0.619-0.514-0.619zM20.928 18.778c-0.037 0.236-0.445-0.037-0.493-0.139s0-3.463 0-3.612 0.386-0.070 0.386-0.070 0.146 3.586 0.107 3.821z"></path>
<path opacity="0.3" fill="#000" d="M14.056 15.485c-0.117-0.323-0.306-0.517-0.565-0.578-0.056-0.014-0.12-0.021-0.187-0.021-0.001 0-0.003 0-0.004 0h0q-0.567 0-0.821 0.665l-1.238 3.155c-0.033 0.086-0.052 0.185-0.052 0.288 0 0.004 0 0.008 0 0.012v-0.001c0 0 0 0 0 0 0 0.035 0.004 0.068 0.012 0.101l-0.001-0.003c0.053 0.223 0.281 0.397 0.549 0.397 0.001 0 0.002 0 0.003 0 0.114 0 0.216-0.047 0.289-0.124l0-0c0.076-0.082 0.136-0.181 0.174-0.289l0.002-0.006q0.011-0.027 0.020-0.057l0.146-0.444h1.74l0.129 0.417c0.104 0.332 0.287 0.502 0.541 0.502 0.249 0 0.433-0.133 0.493-0.334 0.014-0.044 0.021-0.094 0.021-0.146 0-0.001 0-0.001 0-0.002v0c0-0.072-0.026-0.183-0.072-0.332zM12.002 18.74l-0.058 0.032s-0.268 0.3-0.429 0.107 1.297-3.772 1.297-3.772 0.268-0.229 0.434-0.146-1.156 3.349-1.244 3.778zM13.274 16.155l0.548 1.525h-1.127zM14.772 18.933c-0.091 0.016-0.52-0.989-0.52-0.989s-1.731 0.008-1.848-0.036 0.006-0.21 0.006-0.21h1.425l0.331-0.016s-0.785-2.246-0.855-2.361-0.037-0.297 0.091-0.37 0.34 0.212 0.378 0.276 1.211 3.245 1.241 3.47-0.158 0.22-0.249 0.236z"></path>
<path opacity="0.3" fill="#000" d="M25.833 18.685l-1.18-3.2c-0.143-0.398-0.398-0.6-0.756-0.6q-0.567 0-0.821 0.665l-1.238 3.155c-0.033 0.086-0.052 0.185-0.052 0.288 0 0.004 0 0.008 0 0.012v-0.001c0 0.267 0.254 0.497 0.56 0.497 0.001 0 0.002 0 0.003 0 0.114 0 0.216-0.047 0.289-0.124l0-0q0.117-0.117 0.195-0.351l0.143-0.443h1.74l0.13 0.417c0.104 0.332 0.287 0.502 0.541 0.502 0.306 0 0.515-0.202 0.515-0.482 0.001-0.076-0.025-0.187-0.070-0.336zM25.742 18.692c-0.043 0.166-0.3 0.327-0.418 0.225s-0.45-0.82-0.45-0.82l-1.919-0.027s-0.364-0.364 0.043-0.375 1.27 0 1.27 0h0.563l-0.775-2.273-0.292-0.013s-1.045 2.393-1.061 2.575-0.343 1.179-0.536 0.964-0.123-0.198-0.123-0.198 1.362-3.628 1.436-3.693 0.048-0.086 0.332-0.091 0.472-0.037 0.633 0.321 1.34 3.238 1.297 3.404zM23.291 17.68l0.58-1.525 0.548 1.525z"></path>
<path opacity="0.3" fill="#000" d="M6.768 14.926v-0.212h-0.643v0.313c0.095-0.091 0.231-0.126 0.411-0.126 0.004-0 0.009-0 0.013-0 0.077 0 0.153 0.009 0.225 0.026l-0.007-0.001z"></path>
<path opacity="0.3" fill="#000" d="M10.331 14.96v-0.165h-0.497v0.127c0.054-0.013 0.116-0.021 0.179-0.021 0.001 0 0.003 0 0.004 0h-0c0.008-0 0.018-0.001 0.028-0.001 0.103 0 0.201 0.022 0.29 0.061l-0.005-0.002z"></path>
<path fill="none" stroke-linejoin="miter" stroke-linecap="butt" stroke-miterlimit="10" stroke-width="0.4" stroke="#000" d="M9.583 16.457l-0.925 1.584c-0.085 0.111-0.183 0.183-0.3 0.202-0.024 0.004-0.053 0.007-0.081 0.007-0.006 0-0.012-0-0.018-0l0.001 0c-0.005 0-0.010 0-0.016 0-0.031 0-0.062-0.002-0.092-0.007l0.003 0c-0.111-0.020-0.209-0.091-0.287-0.202l-0.932-1.584 0.033 1.994c0 0.443-0.221 0.626-0.515 0.626-0.306 0-0.515-0.183-0.515-0.626v-3.219c0-0.515 0.189-0.678 0.574-0.678 0.3 0 0.456 0.085 0.58 0.306l1.167 1.975 1.16-1.974c0.124-0.183 0.313-0.306 0.587-0.306 0.384 0 0.58 0.163 0.58 0.678v3.219c0 0.443-0.215 0.626-0.521 0.626-0.292 0-0.515-0.183-0.515-0.626zM6.325 15.049c0.001 0.069 0.057 0.124 0.125 0.124 0 0 0 0 0.001 0h0.003c0.001 0 0.002 0 0.002 0 0.063 0 0.115-0.051 0.115-0.115 0-0.003-0-0.006-0-0.009l0 0c0-0.078-0.046-0.124-0.117-0.124-0.003-0-0.006-0-0.009-0-0.064 0-0.117 0.050-0.121 0.112l-0 0q0 0.006 0.001 0.011zM6.325 15.546c0 0.072 0.058 0.13 0.13 0.13h0c0.072 0 0.117-0.058 0.117-0.13 0-0.003 0-0.006 0-0.009 0-0.060-0.046-0.11-0.105-0.114l-0-0h-0.011c-0.002-0-0.003-0-0.005-0-0.067 0-0.123 0.053-0.125 0.12v0.004zM6.325 16.043c0 0.072 0.058 0.13 0.13 0.13h0c0.072 0 0.117-0.058 0.117-0.13 0-0.002 0-0.005 0-0.008 0-0.060-0.049-0.11-0.11-0.11-0.003 0-0.005 0-0.008 0l0-0c-0.072-0.003-0.13 0.042-0.13 0.114zM6.325 16.545c0.005 0.068 0.061 0.122 0.13 0.124h0c0.065-0.003 0.117-0.056 0.117-0.122 0-0.001 0-0.001 0-0.002v0c0-0.003 0-0.006 0-0.009 0-0.060-0.046-0.11-0.105-0.114l-0-0h-0.011c-0.002-0-0.003-0-0.005-0-0.067 0-0.122 0.053-0.125 0.12v0.004zM6.325 17.047c0.006 0.066 0.061 0.117 0.128 0.117 0.001 0 0.001 0 0.002-0h-0c0.065 0 0.117-0.052 0.117-0.117v0c0-0.078-0.046-0.13-0.117-0.13-0.001-0-0.002-0-0.004-0-0.069 0-0.125 0.055-0.127 0.123v0.004zM6.325 17.543c0.006 0.066 0.061 0.117 0.128 0.117 0.001 0 0.001 0 0.002-0h-0c0.065 0 0.117-0.052 0.117-0.117v0c0-0.078-0.046-0.13-0.117-0.13-0.001-0-0.002-0-0.004-0-0.069 0-0.125 0.055-0.127 0.123v0.003zM6.325 18.040c0 0.072 0.058 0.117 0.13 0.117 0.002 0 0.005 0 0.008 0 0.061 0 0.11-0.049 0.11-0.11 0-0.003-0-0.005-0-0.008l0 0c0-0.078-0.046-0.13-0.117-0.13-0.001-0-0.002-0-0.004-0-0.069 0-0.125 0.055-0.127 0.123v0zM6.325 18.537c0 0.072 0.058 0.13 0.13 0.13h0c0.072 0 0.117-0.058 0.117-0.13 0-0.078-0.046-0.124-0.117-0.124-0.003-0-0.006-0-0.009-0-0.064 0-0.117 0.050-0.121 0.112l-0 0q0 0.002 0 0.004zM6.801 15.551c0 0.072 0.058 0.13 0.13 0.13h0c0.001 0 0.002 0 0.003 0 0.066 0 0.12-0.053 0.122-0.119v-0q0-0.006 0-0.011c0-0.002 0-0.005 0-0.007 0-0.065-0.052-0.117-0.117-0.117-0.003 0-0.005 0-0.008 0l0-0c-0.002-0-0.003-0-0.005-0-0.067 0-0.123 0.053-0.125 0.12v0s-0 0.002-0 0.004zM7.056 16c0.002 0.068 0.056 0.122 0.124 0.124h0c0 0 0 0 0 0 0.068 0 0.123-0.055 0.124-0.123v-0c0-0.002 0-0.005 0-0.007 0-0.065-0.052-0.117-0.117-0.117-0.003 0-0.005 0-0.008 0l0-0c-0.002-0-0.003-0-0.005-0-0.064 0-0.117 0.051-0.12 0.114v0q0 0.004 0 0.008zM7.322 16.438c0 0.001-0 0.001-0 0.002 0 0.063 0.050 0.113 0.112 0.115h0.012c0.078 0 0.124-0.046 0.124-0.117 0-0.078-0.046-0.13-0.124-0.13-0.001-0-0.002-0-0.003-0-0.066 0-0.12 0.053-0.122 0.119v0q-0 0.006 0 0.011zM7.576 16.862c-0 0.002-0 0.003-0 0.005 0 0.067 0.053 0.123 0.12 0.125h0.004c0.001 0 0.002 0 0.003 0 0.066 0 0.12-0.053 0.122-0.119v-0q0-0.006 0-0.011c0-0.072-0.046-0.117-0.124-0.117-0.003-0-0.006-0-0.009-0-0.060 0-0.11 0.046-0.114 0.105l-0 0q0 0.005 0 0.011zM7.844 17.312c0.005 0.065 0.058 0.115 0.124 0.117h0c0 0 0.001 0 0.002 0 0.066 0 0.119-0.052 0.122-0.117v-0c0-0.078-0.046-0.13-0.124-0.13-0.001-0-0.002-0-0.003-0-0.066 0-0.12 0.053-0.122 0.119v0q0 0.006 0 0.011zM8.13 17.721c-0 0.002-0 0.003-0 0.005 0 0.067 0.053 0.123 0.12 0.125h0.004c0.001 0 0.002 0 0.003 0 0.066 0 0.12-0.053 0.121-0.119v-0q0-0.006 0-0.011c0-0.003 0.001-0.007 0.001-0.011 0-0.062-0.051-0.113-0.113-0.113-0.004 0-0.008 0-0.012 0.001l0.001-0c-0.002-0-0.005-0-0.007-0-0.065 0-0.117 0.052-0.117 0.117 0 0.002 0 0.005 0 0.007v-0zM8.41 17.312c0.009 0.065 0.063 0.116 0.13 0.117h0c0 0 0.001 0 0.002 0 0.066 0 0.119-0.052 0.122-0.117v-0c0-0.078-0.046-0.13-0.124-0.13-0.001-0-0.002-0-0.004-0-0.069 0-0.125 0.055-0.127 0.123v0q0 0.003 0 0.006zM8.671 16.861c-0 0.002-0 0.003-0 0.005 0 0.067 0.053 0.123 0.12 0.125h0.004c0.001 0 0.002 0 0.003 0 0.066 0 0.12-0.053 0.121-0.119v-0q0-0.006 0-0.011c0-0.072-0.046-0.117-0.124-0.117-0.003-0-0.006-0-0.009-0-0.063 0-0.115 0.051-0.115 0.115 0 0.001 0 0.002 0 0.003v-0zM8.951 16.437c0 0.001-0 0.001-0 0.002 0 0.063 0.050 0.113 0.112 0.115h0.012c0.078 0 0.124-0.046 0.124-0.117 0-0.078-0.046-0.13-0.124-0.13-0.001-0-0.002-0-0.003-0-0.067 0-0.122 0.054-0.122 0.122 0 0.003 0 0.007 0 0.010l-0-0zM9.219 15.999c0.002 0.068 0.056 0.122 0.124 0.124h0c0 0 0 0 0 0 0.068 0 0.123-0.055 0.124-0.123v-0c0-0.002 0-0.005 0-0.007 0-0.065-0.052-0.117-0.117-0.117-0.003 0-0.005 0-0.008 0l0-0c-0.001-0-0.002-0-0.004-0-0.065 0-0.118 0.052-0.12 0.117v0q-0 0.003 0 0.007zM9.466 15.55c-0 0.002-0 0.003-0 0.005 0 0.068 0.053 0.123 0.12 0.125h0.004c0.001 0 0.002 0 0.003 0 0.066 0 0.12-0.052 0.121-0.118v-0q0-0.006 0-0.011c0-0.002 0-0.005 0-0.007 0-0.065-0.052-0.117-0.117-0.117-0.003 0-0.005 0-0.008 0l0-0c-0.001-0-0.003-0-0.004-0-0.065 0-0.117 0.051-0.12 0.115v0q0 0.005 0 0.010zM9.942 15.048c0.002 0.068 0.056 0.122 0.124 0.124h0c0.003 0 0.006 0 0.009 0 0.064 0 0.117-0.050 0.121-0.112l0-0q0-0.006 0-0.011c0-0.078-0.052-0.124-0.13-0.124-0 0-0 0-0 0-0.068 0-0.123 0.055-0.124 0.123v0.002zM9.942 15.544c0.002 0.069 0.056 0.125 0.123 0.13l0 0c0.001 0 0.002 0 0.004 0 0.069 0 0.125-0.055 0.127-0.123v-0q0-0.004 0-0.007c0-0.001 0-0.002 0-0.003 0-0.066-0.053-0.12-0.119-0.121h-0.012c-0.067 0.002-0.121 0.056-0.124 0.123v0zM9.942 16.041c0.002 0.069 0.056 0.125 0.123 0.13l0 0c0.001 0 0.002 0 0.004 0 0.069 0 0.125-0.055 0.127-0.123v-0q0-0.003 0-0.007c0-0.072-0.052-0.117-0.13-0.117-0.001 0-0.001-0-0.002-0-0.065 0-0.118 0.051-0.122 0.115l-0 0zM9.942 16.543c0.007 0.065 0.058 0.117 0.123 0.124l0.001 0c0 0 0.001 0 0.001 0 0.070 0 0.126-0.055 0.129-0.124v-0c0-0.001 0-0.002 0-0.003 0-0.066-0.053-0.12-0.119-0.122h-0.012c-0.067 0.002-0.121 0.055-0.124 0.122v0zM9.942 17.045c0.008 0.064 0.059 0.113 0.124 0.117l0 0c0.068 0 0.124-0.055 0.124-0.124s-0.055-0.124-0.124-0.124v0c-0.069 0.003-0.124 0.059-0.124 0.129v0zM9.942 17.542c0.008 0.064 0.059 0.113 0.124 0.117l0 0c0.068 0 0.124-0.055 0.124-0.124s-0.055-0.124-0.124-0.124v0c-0.068 0.003-0.123 0.059-0.124 0.127v0zM9.942 18.038c0.003 0.065 0.056 0.117 0.122 0.117 0.001 0 0.001 0 0.002 0h-0c0.078 0 0.13-0.046 0.13-0.117 0-0.002 0-0.005 0-0.008 0-0.068-0.055-0.123-0.123-0.123-0.003 0-0.005 0-0.008 0l0-0c-0.068 0.003-0.122 0.058-0.124 0.125v0zM9.942 18.535c0.002 0.069 0.056 0.125 0.123 0.13l0 0c0.001 0 0.002 0 0.004 0 0.069 0 0.125-0.055 0.127-0.123v-0q0-0.003 0-0.007c0-0.078-0.052-0.124-0.13-0.124-0 0-0 0-0 0-0.066 0-0.12 0.052-0.123 0.117v0z"></path>
<path opacity="0.3" fill="#000" d="M6.631 15.664s0.051 0.117 0.137 0.3v-0.744c-0.112 0.026-0.204 0.131-0.137 0.444z"></path>
<path opacity="0.3" fill="#000" d="M9.834 15.108v0.877c0.105-0.269 0.106-0.593 0.15-0.68 0.036-0.074-0.092-0.147-0.15-0.196z"></path>
<path fill="none" stroke-linejoin="miter" stroke-linecap="butt" stroke-miterlimit="10" stroke-width="0.4" stroke="#999" d="M12.382 18.242l-0.143 0.443q-0.078 0.234-0.195 0.351c-0.073 0.076-0.175 0.124-0.289 0.124-0.001 0-0.002 0-0.003 0h0c-0.306 0-0.56-0.228-0.56-0.497-0-0.004-0-0.008-0-0.013 0-0.102 0.018-0.199 0.052-0.289l-0.002 0.006 1.238-3.155q0.254-0.665 0.821-0.665c0.358 0 0.614 0.202 0.756 0.6l1.179 3.2c0.046 0.15 0.072 0.261 0.072 0.332 0 0.28-0.209 0.482-0.515 0.482-0.254 0-0.437-0.169-0.541-0.502l-0.13-0.417zM11.795 18.685c-0.002-0.068-0.056-0.122-0.124-0.124h-0c-0 0-0.001 0-0.001 0-0.070 0-0.126 0.055-0.129 0.124v0c-0 0.001-0 0.002-0 0.003 0 0.066 0.053 0.12 0.119 0.122h0.012c0.001 0 0.003 0 0.004 0 0.065 0 0.118-0.052 0.12-0.117v-0q0-0.004 0-0.007zM11.951 18.235c0-0.072-0.058-0.117-0.13-0.117-0.065 0-0.117 0.052-0.117 0.117v0c-0 0.002-0 0.004-0 0.006 0 0.066 0.052 0.12 0.117 0.124l0 0c0.001 0 0.002 0 0.004 0 0.069 0 0.125-0.055 0.127-0.123v-0q0-0.004 0-0.007zM12.114 17.792c0-0.072-0.046-0.13-0.117-0.13-0.001-0-0.002-0-0.004-0-0.069 0-0.125 0.055-0.127 0.123v0q0 0.003 0 0.007c0 0.078 0.052 0.117 0.13 0.117 0.003 0 0.007 0.001 0.011 0.001 0.059 0 0.106-0.048 0.106-0.106 0-0.004-0-0.008-0.001-0.012l0 0zM12.316 17.348c-0.005-0.068-0.061-0.122-0.13-0.124h-0c-0 0-0 0-0 0-0.068 0-0.123 0.055-0.124 0.123v0c-0 0.002-0 0.005-0 0.007 0 0.065 0.052 0.117 0.117 0.117 0.003 0 0.005-0 0.008-0l-0 0c0.002 0 0.003 0 0.005 0 0.067 0 0.122-0.053 0.125-0.12v-0.004zM12.485 16.892c0-0.072-0.058-0.117-0.13-0.117-0.065 0-0.117 0.052-0.117 0.117v0c-0 0.002-0 0.004-0 0.006 0 0.066 0.052 0.12 0.117 0.124l0 0c0.001 0 0.002 0 0.004 0 0.069 0 0.125-0.055 0.127-0.123v-0q0-0.004 0-0.007zM12.616 17.792c0-0.072-0.046-0.13-0.117-0.13-0.001-0-0.002-0-0.004-0-0.069 0-0.125 0.055-0.127 0.123v0q0 0.003 0 0.007c0 0.078 0.052 0.117 0.13 0.117 0.003 0 0.007 0.001 0.011 0.001 0.059 0 0.106-0.048 0.106-0.106 0-0.004-0-0.008-0.001-0.012l0 0zM12.642 16.443c0-0.072-0.046-0.13-0.117-0.13-0.001-0-0.002-0-0.004-0-0.069 0-0.125 0.055-0.127 0.123v0q0 0.003 0 0.007c0 0.078 0.052 0.117 0.13 0.117 0.003 0 0.007 0.001 0.011 0.001 0.059 0 0.106-0.048 0.106-0.106 0-0.004-0-0.008-0.001-0.012l0 0zM12.831 15.987c-0.005-0.068-0.061-0.122-0.13-0.124h-0c-0.065 0-0.117 0.052-0.117 0.117v0q0 0.004 0 0.007c0 0.072 0.039 0.124 0.117 0.124 0.002 0 0.003 0 0.005 0 0.067 0 0.122-0.053 0.125-0.12v-0.004zM13.274 15.804l-0.58 1.525h1.127zM13 15.537c-0.008-0.064-0.059-0.113-0.124-0.117l-0-0c-0.068 0-0.124 0.055-0.124 0.124s0.055 0.124 0.124 0.124v0c0.069-0.003 0.124-0.060 0.124-0.129 0-0 0-0.001 0-0.001v0zM13.13 17.792c0-0.002 0-0.003 0-0.005 0-0.067-0.053-0.123-0.12-0.125h-0.004c-0.001-0-0.002-0-0.003-0-0.066 0-0.12 0.053-0.121 0.119v0q0 0.006 0 0.011c0 0.078 0.046 0.117 0.124 0.117 0.072 0 0.124-0.039 0.124-0.117zM13.196 15.126c0-0.001 0-0.001 0-0.002 0-0.067-0.051-0.122-0.116-0.128l-0.001-0c-0.001-0-0.002-0-0.004-0-0.069 0-0.125 0.055-0.127 0.123v0q0 0.004 0 0.007c0 0.072 0.052 0.117 0.13 0.117 0.065 0 0.117-0.052 0.117-0.117v0zM13.605 15.126c-0-0.072-0.058-0.13-0.13-0.13h-0c-0.072 0-0.117 0.058-0.117 0.13-0 0.002-0 0.005-0 0.008 0 0.060 0.049 0.11 0.11 0.11 0.003 0 0.005-0 0.008-0l-0 0c0.072 0 0.131-0.045 0.131-0.117zM13.631 17.792c-0-0.072-0.058-0.13-0.13-0.13h-0c-0.001-0-0.002-0-0.003-0-0.066 0-0.12 0.053-0.121 0.119v0q0 0.006 0 0.011c0 0.078 0.046 0.117 0.124 0.117 0.072 0 0.131-0.039 0.131-0.117zM13.806 15.537c-0.008-0.064-0.059-0.113-0.123-0.117l-0-0c-0.068 0-0.124 0.055-0.124 0.124s0.055 0.124 0.124 0.124v0c0.070-0.002 0.125-0.059 0.125-0.129 0-0 0-0.001 0-0.001v0zM13.969 15.986c0-0.001 0-0.001 0-0.002 0-0.066-0.052-0.119-0.117-0.122h-0c-0 0-0.001 0-0.001 0-0.070 0-0.126 0.055-0.129 0.124v0c-0 0.001-0 0.002-0 0.003 0 0.066 0.053 0.12 0.119 0.122h0.012c0.001 0 0.002 0 0.002 0 0.063 0 0.115-0.051 0.115-0.115 0-0.003-0-0.006-0-0.009l0 0zM14.138 16.442c-0-0.072-0.058-0.13-0.13-0.13h-0c-0.072 0-0.117 0.058-0.117 0.13-0 0.003-0.001 0.007-0.001 0.011 0 0.059 0.048 0.106 0.106 0.106 0.004 0 0.008-0 0.012-0.001l-0 0c0.073 0 0.131-0.038 0.131-0.117zM14.138 17.791c-0-0.072-0.058-0.13-0.13-0.13h-0c-0.072 0-0.117 0.058-0.117 0.13-0 0.003-0.001 0.007-0.001 0.011 0 0.059 0.048 0.106 0.106 0.106 0.004 0 0.008-0 0.012-0.001l-0 0c0.073 0 0.131-0.038 0.131-0.117zM14.295 16.892c0-0.068-0.055-0.124-0.124-0.124s-0.124 0.055-0.124 0.124c0 0.068 0.055 0.124 0.124 0.124v0c0 0 0.001 0 0.001 0 0.068 0 0.124-0.055 0.124-0.124 0 0 0 0 0 0v0zM14.451 17.348c-0.002-0.068-0.056-0.122-0.124-0.124h-0c-0 0-0 0-0 0-0.068 0-0.123 0.055-0.124 0.123v0c-0 0.002-0 0.005-0 0.007 0 0.065 0.052 0.117 0.117 0.117 0.003 0 0.005-0 0.008-0l-0 0c0.002 0 0.004 0 0.005 0 0.064 0 0.117-0.051 0.12-0.114v-0q0-0.004 0-0.009zM14.62 17.791c-0.002-0.069-0.056-0.125-0.123-0.13l-0-0c-0.001-0-0.002-0-0.003-0-0.066 0-0.12 0.053-0.121 0.119v0q0 0.006 0 0.011c0 0.078 0.046 0.117 0.124 0.117 0.002 0 0.005 0 0.008 0 0.062 0 0.112-0.048 0.117-0.108l0-0q0-0.004 0-0.008zM14.777 18.23c-0.003-0.065-0.056-0.117-0.122-0.117-0.001 0-0.001 0-0.002 0h0c-0.078 0-0.13 0.046-0.13 0.117-0 0.002-0 0.005-0 0.008 0 0.068 0.055 0.123 0.123 0.123 0.003 0 0.005-0 0.008-0l-0 0c0.070-0.002 0.125-0.059 0.125-0.129 0-0 0-0 0-0.001v0zM14.946 18.686c-0.005-0.068-0.061-0.122-0.13-0.124h-0c-0.065 0.003-0.117 0.056-0.117 0.122 0 0.001 0 0.001 0 0.002v-0c-0 0.002-0 0.005-0 0.008 0 0.061 0.048 0.111 0.108 0.115l0 0h0.011c0.002 0 0.004 0 0.006 0 0.067 0 0.122-0.053 0.125-0.119v-0q0-0.002 0-0.005z"></path>
<path fill="none" stroke-linejoin="miter" stroke-linecap="butt" stroke-miterlimit="10" stroke-width="0.4" stroke="#000" d="M16.907 16.513l0.032 1.942c0 0.443-0.221 0.626-0.515 0.626-0.306 0-0.515-0.183-0.515-0.626v-3.428c0-0.313 0.189-0.502 0.508-0.502 0.215 0 0.409 0.117 0.574 0.345l1.564 2.294-0.033-1.987c0-0.437 0.221-0.619 0.515-0.619s0.515 0.183 0.515 0.619v3.434c0 0.313-0.189 0.502-0.508 0.502-0.221 0-0.417-0.117-0.58-0.351zM16.294 15.052c0.001 0.069 0.057 0.124 0.125 0.124 0.001 0 0.001 0 0.002 0h0.003c0.001 0 0.002 0 0.002 0 0.063 0 0.115-0.051 0.115-0.115 0-0.003-0-0.006-0-0.009l0 0c0-0.078-0.046-0.124-0.117-0.124-0.002-0-0.005-0-0.008-0-0.064 0-0.117 0.050-0.121 0.113l-0 0q0 0.006 0 0.011zM16.294 15.548c0 0.072 0.058 0.13 0.13 0.13h0c0.072 0 0.117-0.058 0.117-0.13 0-0.003 0-0.006 0-0.009 0-0.060-0.046-0.11-0.105-0.114l-0-0h-0.011c-0.001-0-0.003-0-0.004-0-0.068 0-0.123 0.054-0.125 0.121v0.003zM16.294 16.045c0 0.072 0.058 0.13 0.13 0.13h0c0.072 0 0.117-0.058 0.117-0.13 0-0.002 0-0.005 0-0.008 0-0.060-0.049-0.11-0.11-0.11-0.003 0-0.005 0-0.008 0l0-0c-0.071-0.002-0.129 0.043-0.129 0.115zM16.294 16.547c0.006 0.068 0.061 0.122 0.13 0.124h0c0.065-0.003 0.117-0.056 0.117-0.122 0-0.001 0-0.001 0-0.002v0c0-0.003 0-0.006 0-0.009 0-0.060-0.046-0.11-0.105-0.114l-0-0h-0.011c-0.001-0-0.003-0-0.004-0-0.068 0-0.123 0.054-0.125 0.121v0zM16.294 17.049c0.006 0.066 0.061 0.117 0.128 0.117 0.001 0 0.001 0 0.002-0h-0c0.065 0 0.117-0.052 0.117-0.117v0c0-0.078-0.046-0.13-0.117-0.13-0.001-0-0.002-0-0.003-0-0.069 0-0.125 0.055-0.127 0.124v0.004zM16.294 17.546c0.006 0.066 0.061 0.117 0.128 0.117 0.001 0 0.001 0 0.002-0h-0c0.065 0 0.117-0.052 0.117-0.117v0c0-0.078-0.046-0.13-0.117-0.13-0.001-0-0.002-0-0.003-0-0.069 0-0.125 0.055-0.127 0.124v0.003zM16.294 18.042c0 0.072 0.058 0.117 0.13 0.117 0.002 0 0.005 0 0.008 0 0.061 0 0.11-0.049 0.11-0.11 0-0.003-0-0.005-0-0.008l0 0c0-0.078-0.046-0.13-0.117-0.13-0.001-0-0.002-0-0.003-0-0.069 0-0.125 0.055-0.127 0.124v0zM16.294 18.539c0 0.072 0.058 0.13 0.13 0.13h0c0.072 0 0.117-0.058 0.117-0.13 0-0.078-0.046-0.124-0.117-0.124-0.002-0-0.005-0-0.008-0-0.064 0-0.117 0.050-0.121 0.113l-0 0q0 0.002 0 0.004zM16.776 15.613c0.001 0.069 0.057 0.124 0.125 0.124 0.001 0 0.001 0 0.002 0h0.003c0.078 0 0.117-0.052 0.117-0.124 0-0.078-0.039-0.124-0.117-0.124-0.002-0-0.005-0-0.008-0-0.064 0-0.117 0.050-0.121 0.113l-0 0q0 0.002 0 0.004zM17.089 16.11c0 0.072 0.058 0.13 0.13 0.13h0c0.072 0 0.117-0.058 0.117-0.13 0-0.078-0.046-0.124-0.117-0.124-0.002-0-0.005-0-0.008-0-0.064 0-0.117 0.050-0.121 0.113l-0 0v0.003zM17.422 16.566c0.007 0.065 0.058 0.117 0.123 0.124l0.001 0c0.069-0.002 0.125-0.058 0.125-0.128 0-0.001 0-0.002-0-0.003v0c0-0.002 0-0.005 0-0.007 0-0.065-0.052-0.117-0.117-0.117-0.003 0-0.005 0-0.008 0l0-0c-0 0-0 0-0.001 0-0.068 0-0.123 0.055-0.124 0.123v0zM17.747 17.035c0.005 0.063 0.054 0.112 0.116 0.117l0 0c0.002 0 0.004 0 0.007 0 0.068 0 0.124-0.055 0.124-0.124s-0.055-0.124-0.124-0.124c-0.068 0-0.124 0.055-0.124 0.124 0 0.002 0 0.005 0 0.007v-0zM18.086 17.511c0 0.001-0 0.001-0 0.002 0 0.063 0.050 0.113 0.112 0.115h0.012c0.078 0 0.124-0.046 0.124-0.117 0-0.078-0.046-0.13-0.124-0.13-0.001 0-0.001 0-0.002 0-0.067 0-0.121 0.053-0.122 0.12v0.003zM18.432 17.987c0 0.072 0.058 0.13 0.13 0.13h0c0.072 0 0.117-0.058 0.117-0.13 0-0.003 0.001-0.007 0.001-0.011 0-0.059-0.048-0.106-0.106-0.106-0.004 0-0.008 0-0.012 0.001l0-0c-0.071-0.008-0.13 0.031-0.13 0.11zM18.92 15.061c-0 0.001-0 0.003-0 0.004 0 0.065 0.052 0.118 0.117 0.12h0.006c0.002 0 0.005 0 0.007 0 0.065 0 0.117-0.052 0.117-0.117 0-0.003-0-0.005-0-0.008l0 0c0-0.003 0.001-0.007 0.001-0.011 0-0.062-0.051-0.113-0.113-0.113-0.004 0-0.008 0-0.012 0.001l0-0c-0.002-0-0.004-0-0.006-0-0.062 0-0.113 0.049-0.117 0.11v0q0 0.003 0 0.006zM18.92 15.557c0.002 0.067 0.056 0.12 0.123 0.121h0c0.001 0 0.002 0 0.003 0 0.066 0 0.12-0.053 0.122-0.119v-0q0-0.006 0-0.011c0-0.002 0-0.005 0-0.007 0-0.065-0.052-0.117-0.117-0.117-0.003 0-0.005 0-0.008 0l0-0c-0.001-0-0.002-0-0.003-0-0.065 0-0.118 0.052-0.12 0.117v0q0 0.003 0 0.006zM18.92 16.054c-0 0.002-0 0.003-0 0.005 0 0.067 0.053 0.123 0.12 0.125h0.003c0.001 0 0.002 0 0.003 0 0.066 0 0.12-0.053 0.122-0.119v-0q0-0.006 0-0.011c0-0.072-0.046-0.117-0.124-0.117-0.003-0-0.006-0-0.009-0-0.060 0-0.11 0.047-0.114 0.106l-0 0zM18.92 16.556c0.002 0.068 0.056 0.122 0.124 0.124h0c0 0 0 0 0 0 0.068 0 0.123-0.055 0.124-0.123v-0c0-0.002 0-0.005 0-0.007 0-0.065-0.052-0.117-0.117-0.117-0.003 0-0.005 0-0.008 0l0-0c-0.001-0-0.002-0-0.004-0-0.064 0-0.116 0.050-0.12 0.113v0zM18.92 17.058c0.003 0.065 0.057 0.117 0.123 0.117 0 0 0.001 0 0.001 0h-0c0.002 0 0.004 0 0.006 0 0.063 0 0.115-0.050 0.118-0.113v-0.004c0-0.078-0.046-0.13-0.124-0.13-0.001 0-0.001 0-0.002 0-0.067 0-0.121 0.053-0.122 0.12v0zM18.92 17.555c0.003 0.065 0.057 0.117 0.123 0.117 0 0 0.001 0 0.001 0h-0c0.002 0 0.004 0 0.006 0 0.063 0 0.115-0.050 0.118-0.113v-0.004c0-0.078-0.046-0.13-0.124-0.13-0.001 0-0.001 0-0.002 0-0.066 0-0.119 0.052-0.121 0.117v0zM18.92 18.051c0 0.001-0 0.001-0 0.002 0 0.063 0.050 0.113 0.112 0.115h0.011c0.078 0 0.124-0.046 0.124-0.117 0-0.078-0.046-0.13-0.124-0.13-0.001 0-0.001 0-0.002 0-0.066 0-0.119 0.052-0.121 0.117v0zM18.92 18.548c-0 0.002-0 0.003-0 0.005 0 0.067 0.053 0.123 0.12 0.125h0.003c0.001 0 0.002 0 0.003 0 0.066 0 0.12-0.053 0.122-0.119v-0q0-0.006 0-0.011c0-0.003 0-0.007 0-0.011 0-0.062-0.051-0.113-0.113-0.113-0.004 0-0.008 0-0.012 0.001l0-0c-0.002-0-0.004-0-0.007-0-0.062 0-0.113 0.048-0.117 0.109l-0 0z"></path>
<path fill="none" stroke-linejoin="miter" stroke-linecap="butt" stroke-miterlimit="10" stroke-width="0.4" stroke="#000" d="M20.669 14.561c0.292 0 0.515 0.183 0.515 0.619v3.278c0 0.443-0.221 0.626-0.515 0.626-0.306 0-0.515-0.183-0.515-0.626v-3.219c-0.001-0.515 0.208-0.678 0.515-0.678zM20.539 15.057c0.001 0.069 0.057 0.124 0.125 0.124 0.001 0 0.001 0 0.002 0h0.003c0.001 0 0.002 0 0.002 0 0.063 0 0.115-0.051 0.115-0.115 0-0.003-0-0.006-0-0.009l0 0c0-0.078-0.046-0.124-0.117-0.124-0.003-0-0.006-0-0.009-0-0.064 0-0.117 0.050-0.121 0.112l-0 0q0 0.005 0 0.010zM20.539 15.554c0 0.072 0.058 0.13 0.13 0.13h0c0.072 0 0.117-0.058 0.117-0.13 0-0.003 0-0.006 0-0.009 0-0.061-0.047-0.11-0.106-0.114l-0-0h-0.011c-0.002-0-0.003-0-0.005-0-0.067 0-0.122 0.053-0.125 0.12v0.004zM20.539 16.051c0 0.072 0.058 0.13 0.13 0.13h0c0.072 0 0.117-0.058 0.117-0.13 0-0.002 0-0.005 0-0.008 0-0.060-0.049-0.11-0.11-0.11-0.003 0-0.005 0-0.008 0l0-0c-0.005-0.001-0.011-0.001-0.016-0.001-0.063 0-0.114 0.051-0.114 0.114v0zM20.539 16.553c0.005 0.068 0.061 0.122 0.13 0.124h0c0.065-0.003 0.117-0.056 0.117-0.122 0-0.001 0-0.001 0-0.002v0c0-0.003 0-0.006 0-0.009 0-0.060-0.046-0.11-0.105-0.114l-0-0h-0.011c-0.002-0-0.003-0-0.005-0-0.067 0-0.122 0.053-0.125 0.119v0zM20.539 17.055c0.006 0.066 0.061 0.117 0.128 0.117 0.001 0 0.001 0 0.002-0h-0c0.065 0 0.117-0.052 0.117-0.117v0c0-0.078-0.046-0.13-0.117-0.13-0.001-0-0.002-0-0.004-0-0.069 0-0.125 0.055-0.127 0.123v0.003zM20.539 17.551c0.006 0.066 0.061 0.117 0.128 0.117 0.001 0 0.001 0 0.002-0h-0c0.065 0 0.117-0.052 0.117-0.117v0c0-0.078-0.046-0.13-0.117-0.13-0.001-0-0.002-0-0.004-0-0.069 0-0.125 0.055-0.127 0.123v0zM20.539 18.048c0 0.072 0.058 0.117 0.13 0.117 0.002 0 0.005 0 0.008 0 0.061 0 0.11-0.049 0.11-0.11 0-0.003-0-0.005-0-0.008l0 0c0-0.078-0.046-0.13-0.117-0.13-0.001-0-0.002-0-0.004-0-0.069 0-0.125 0.055-0.127 0.123v0zM20.539 18.545c0 0.072 0.058 0.13 0.13 0.13h0c0.072 0 0.117-0.058 0.117-0.13 0-0.078-0.046-0.124-0.117-0.124-0.003-0-0.006-0-0.009-0-0.064 0-0.116 0.049-0.121 0.112l-0 0v0.012z"></path>
<path fill="none" stroke-linejoin="miter" stroke-linecap="butt" stroke-miterlimit="10" stroke-width="0.4" stroke="#999" d="M22.978 18.235l-0.143 0.443q-0.078 0.234-0.195 0.351c-0.073 0.078-0.177 0.127-0.292 0.127-0.001 0-0.002 0-0.003 0h0c-0.306 0-0.56-0.228-0.56-0.497-0-0.003-0-0.008-0-0.012 0-0.103 0.019-0.202 0.054-0.294l-0.002 0.006 1.238-3.155q0.255-0.664 0.822-0.664c0.358 0 0.614 0.202 0.756 0.6l1.18 3.199c0.046 0.15 0.072 0.261 0.072 0.332 0 0.28-0.209 0.482-0.515 0.482-0.254 0-0.436-0.169-0.541-0.502l-0.13-0.417zM22.392 18.678c-0.002-0.068-0.056-0.122-0.124-0.124h-0c-0 0-0.001 0-0.001 0-0.070 0-0.126 0.055-0.129 0.124v0c-0 0.001-0 0.002-0 0.003 0 0.066 0.053 0.12 0.119 0.122h0.012c0.001 0 0.003 0 0.004 0 0.065 0 0.118-0.052 0.12-0.117v-0q0-0.003 0-0.007zM22.549 18.229c0-0.072-0.058-0.117-0.13-0.117-0.065 0-0.117 0.052-0.117 0.117v0c-0 0.002-0 0.004-0 0.006 0 0.066 0.052 0.12 0.117 0.124l0 0c0.001 0 0.002 0 0.004 0 0.069 0 0.125-0.055 0.127-0.123v-0q0-0.003 0-0.007zM22.712 17.786c0-0.072-0.046-0.13-0.117-0.13-0.001-0-0.002-0-0.004-0-0.069 0-0.125 0.055-0.127 0.123v0q0 0.003 0 0.007c0 0.078 0.052 0.117 0.13 0.117 0.071 0 0.117-0.039 0.117-0.117zM22.914 17.342c-0.006-0.069-0.062-0.122-0.131-0.124h-0c-0 0-0 0-0 0-0.068 0-0.123 0.055-0.124 0.123v0c-0 0.002-0 0.005-0 0.007 0 0.065 0.052 0.117 0.117 0.117 0.003 0 0.005-0 0.008-0l-0 0c0.001 0 0.003 0 0.005 0 0.068 0 0.123-0.054 0.125-0.121v-0.003zM23.084 16.886c0-0.072-0.058-0.117-0.13-0.117-0.065 0-0.117 0.052-0.117 0.117v0c-0 0.002-0 0.004-0 0.006 0 0.066 0.052 0.12 0.117 0.124l0 0c0.001 0 0.002 0 0.002 0 0.069 0 0.125-0.055 0.127-0.124v-0q0-0.003 0-0.006zM23.214 17.786c0-0.072-0.046-0.13-0.117-0.13-0.001-0-0.002-0-0.004-0-0.069 0-0.125 0.055-0.127 0.123v0q0 0.003 0 0.007c0 0.078 0.052 0.117 0.13 0.117 0.003 0 0.007 0.001 0.011 0.001 0.059 0 0.106-0.048 0.106-0.106 0-0.004-0-0.008-0.001-0.012l0 0zM23.24 16.437c0-0.072-0.046-0.13-0.117-0.13-0.001-0-0.002-0-0.004-0-0.069 0-0.125 0.055-0.127 0.123v0q0 0.003 0 0.007c0 0.078 0.052 0.117 0.13 0.117 0.003 0 0.007 0.001 0.011 0.001 0.059 0 0.106-0.048 0.106-0.106 0-0.004-0-0.008-0.001-0.012l0 0zM23.429 15.98c-0.006-0.068-0.061-0.122-0.13-0.124h-0c-0.065 0-0.117 0.052-0.117 0.117v0q0 0.004 0 0.007c0 0.072 0.039 0.124 0.117 0.124 0.001 0 0.003 0 0.004 0 0.068 0 0.123-0.054 0.125-0.121v-0.003zM23.872 15.798l-0.58 1.525h1.127zM23.599 15.531c-0.008-0.064-0.059-0.113-0.124-0.117l-0-0c-0.068 0-0.124 0.055-0.124 0.124s0.055 0.124 0.124 0.124v0c0.069-0.004 0.123-0.060 0.123-0.129 0-0.001 0-0.001 0-0.002v0zM23.729 17.786c0-0.002 0-0.003 0-0.005 0-0.067-0.053-0.123-0.12-0.125h-0.004c-0.001-0-0.002-0-0.003-0-0.066 0-0.12 0.053-0.122 0.119v0q0 0.006 0 0.011c0 0.078 0.046 0.117 0.124 0.117 0.070 0 0.123-0.039 0.123-0.117zM23.794 15.12c0-0.001 0-0.001 0-0.002 0-0.067-0.051-0.122-0.116-0.128l-0.001-0c-0.001-0-0.002-0-0.004-0-0.069 0-0.125 0.055-0.127 0.123v0q0 0.004 0 0.007c0 0.072 0.052 0.117 0.13 0.117 0.065 0 0.117-0.052 0.117-0.117v0zM24.203 15.12c-0-0.072-0.058-0.13-0.13-0.13h-0c-0.072 0-0.117 0.058-0.117 0.13-0 0.002-0 0.005-0 0.008 0 0.060 0.049 0.11 0.11 0.11 0.003 0 0.005-0 0.008-0l-0 0c0.071 0 0.129-0.045 0.129-0.117zM24.229 17.786c-0-0.072-0.058-0.13-0.13-0.13h-0c-0.001-0-0.002-0-0.003-0-0.066 0-0.12 0.053-0.122 0.119v0q0 0.006 0 0.011c0 0.078 0.046 0.117 0.124 0.117 0.071 0 0.129-0.039 0.129-0.117zM24.404 15.531c0-0.058-0.065-0.117-0.124-0.117-0.068 0-0.124 0.055-0.124 0.124s0.055 0.124 0.124 0.124v0c0.069-0.003 0.124-0.060 0.124-0.129 0-0.001 0-0.001 0-0.002v0zM24.567 15.98c0-0.001 0-0.001 0-0.002 0-0.066-0.052-0.119-0.117-0.122h-0c-0 0-0.001 0-0.001 0-0.070 0-0.126 0.055-0.129 0.124v0c-0 0.001-0 0.002-0 0.003 0 0.066 0.053 0.12 0.119 0.122h0.012c0.001 0 0.001 0 0.002 0 0.063 0 0.114-0.050 0.115-0.113v-0q0-0.006 0-0.011zM24.737 16.436c-0-0.072-0.058-0.13-0.13-0.13h-0c-0.072 0-0.117 0.058-0.117 0.13-0 0.003-0.001 0.007-0.001 0.011 0 0.059 0.048 0.106 0.106 0.106 0.004 0 0.008-0 0.012-0.001l-0 0c0.071 0.002 0.13-0.039 0.13-0.117zM24.737 17.785c-0-0.072-0.058-0.13-0.13-0.13h-0c-0.072 0-0.117 0.058-0.117 0.13 0 0.078 0.046 0.117 0.117 0.117s0.13-0.038 0.13-0.117zM24.893 16.886c-0-0.068-0.056-0.124-0.124-0.124s-0.124 0.055-0.124 0.124c0 0.068 0.055 0.124 0.124 0.124h0c0 0 0 0 0 0 0.068 0 0.124-0.055 0.124-0.124 0-0 0-0 0-0v0zM25.050 17.342c-0.002-0.068-0.056-0.122-0.124-0.124h-0c-0 0-0 0-0 0-0.068 0-0.123 0.055-0.124 0.123v0c-0 0.002-0 0.005-0 0.007 0 0.065 0.052 0.117 0.117 0.117 0.003 0 0.005-0 0.008-0l-0 0c0.001 0 0.003 0 0.004 0 0.065 0 0.118-0.052 0.12-0.117v-0q0-0.004 0-0.008zM25.219 17.785c-0.002-0.069-0.056-0.125-0.123-0.13l-0-0c-0.001-0-0.002-0-0.003-0-0.066 0-0.12 0.053-0.122 0.119v0q0 0.006 0 0.011c0 0.078 0.046 0.117 0.124 0.117 0.002 0 0.004 0 0.007 0 0.062 0 0.113-0.049 0.117-0.11l0-0q0-0.003 0-0.007zM25.375 18.224c-0.003-0.065-0.056-0.117-0.122-0.117-0.001 0-0.001 0-0.002 0h0c-0.078 0-0.13 0.046-0.13 0.117-0 0.002-0 0.005-0 0.008 0 0.068 0.055 0.123 0.123 0.123 0.003 0 0.005-0 0.008-0l-0 0c0.069-0.003 0.124-0.060 0.124-0.129 0-0 0-0 0-0.001v0zM25.545 18.68c-0.005-0.068-0.061-0.122-0.13-0.124h-0c-0.065 0.003-0.117 0.056-0.117 0.122 0 0.001 0 0.001 0 0.002v-0c-0 0.003-0 0.006-0 0.009 0 0.060 0.046 0.11 0.105 0.114l0 0h0.011c0.001 0 0.003 0 0.005 0 0.068 0 0.123-0.054 0.125-0.121v-0.003z"></path>
<path d="M6.688 18.807v-3.147l1.534 2.306 0.352-0.234-0.022-0.032 0.010 0.006 1.349-2.111v3.212h0.419v-3.972h-0.419v0.384l-0.174-0.111-1.425 2.23-1.352-2.032-0.272 0.181v-0.691h-0.463v4.011z"></path>
<path fill="#999" d="M13.282 14.952l0.020 0.055-0.324-0.13-1.549 3.865 0.339 0.135 0.472-1.18v0.28h2.093v-0.093l0.388 1.084 0.342-0.123-1.44-4.017zM12.282 17.593l1.028-2.566 0.919 2.566z"></path>
<path d="M18.685 18.403l0.204-0.148v0.599h0.398v-4.019h-0.398v3.186l-1.944-2.671-0.259 0.189v-0.743h-0.478v4.011h0.478v-3.151z"></path>
<path d="M20.437 14.797h0.565v4.011h-0.565v-4.011z"></path>
<path d="M25.267 17.743v-0.209h-0.075l-0.974-2.712-0.288 0.103-0.349-0.139-1.582 3.986 0.368 0.146 0.374-0.941h2.189l0.365 1.014 0.373-0.134zM22.917 17.534l0.973-2.45 0.88 2.45z"></path>
<path fill="#999" d="M9.583 16.457l-0.925 1.584c-0.085 0.111-0.183 0.183-0.3 0.202-0.024 0.004-0.053 0.007-0.081 0.007-0.006 0-0.012-0-0.018-0l0.001 0c-0.005 0-0.010 0-0.016 0-0.031 0-0.062-0.002-0.092-0.007l0.003 0c-0.111-0.020-0.209-0.091-0.287-0.202l-0.932-1.584 0.033 1.994c0 0.443-0.221 0.626-0.515 0.626-0.306 0-0.515-0.183-0.515-0.626v-3.219c0-0.515 0.189-0.678 0.574-0.678 0.3 0 0.456 0.085 0.58 0.306l1.167 1.975 1.16-1.974c0.124-0.183 0.313-0.306 0.587-0.306 0.384 0 0.58 0.163 0.58 0.678v3.219c0 0.443-0.215 0.626-0.521 0.626-0.292 0-0.515-0.183-0.515-0.626zM6.325 15.049c0.001 0.069 0.057 0.124 0.125 0.124 0 0 0 0 0.001 0h0.003c0.001 0 0.002 0 0.002 0 0.063 0 0.115-0.051 0.115-0.115 0-0.003-0-0.006-0-0.009l0 0c0-0.078-0.046-0.124-0.117-0.124-0.003-0-0.006-0-0.009-0-0.064 0-0.117 0.050-0.121 0.112l-0 0q0 0.006 0.001 0.011zM6.325 15.546c0 0.072 0.058 0.13 0.13 0.13h0c0.072 0 0.117-0.058 0.117-0.13 0-0.003 0-0.006 0-0.009 0-0.060-0.046-0.11-0.105-0.114l-0-0h-0.011c-0.002-0-0.003-0-0.005-0-0.067 0-0.123 0.053-0.125 0.12v0.004zM6.325 16.043c0 0.072 0.058 0.13 0.13 0.13h0c0.072 0 0.117-0.058 0.117-0.13 0-0.002 0-0.005 0-0.008 0-0.060-0.049-0.11-0.11-0.11-0.003 0-0.005 0-0.008 0l0-0c-0.072-0.003-0.13 0.042-0.13 0.114zM6.325 16.545c0.005 0.068 0.061 0.122 0.13 0.124h0c0.065-0.003 0.117-0.056 0.117-0.122 0-0.001 0-0.001 0-0.002v0c0-0.003 0-0.006 0-0.009 0-0.060-0.046-0.11-0.105-0.114l-0-0h-0.011c-0.002-0-0.003-0-0.005-0-0.067 0-0.122 0.053-0.125 0.12v0.004zM6.325 17.047c0.006 0.066 0.061 0.117 0.128 0.117 0.001 0 0.001 0 0.002-0h-0c0.065 0 0.117-0.052 0.117-0.117v0c0-0.078-0.046-0.13-0.117-0.13-0.001-0-0.002-0-0.004-0-0.069 0-0.125 0.055-0.127 0.123v0.004zM6.325 17.543c0.006 0.066 0.061 0.117 0.128 0.117 0.001 0 0.001 0 0.002-0h-0c0.065 0 0.117-0.052 0.117-0.117v0c0-0.078-0.046-0.13-0.117-0.13-0.001-0-0.002-0-0.004-0-0.069 0-0.125 0.055-0.127 0.123v0.003zM6.325 18.040c0 0.072 0.058 0.117 0.13 0.117 0.002 0 0.005 0 0.008 0 0.061 0 0.11-0.049 0.11-0.11 0-0.003-0-0.005-0-0.008l0 0c0-0.078-0.046-0.13-0.117-0.13-0.001-0-0.002-0-0.004-0-0.069 0-0.125 0.055-0.127 0.123v0zM6.325 18.537c0 0.072 0.058 0.13 0.13 0.13h0c0.072 0 0.117-0.058 0.117-0.13 0-0.078-0.046-0.124-0.117-0.124-0.003-0-0.006-0-0.009-0-0.064 0-0.117 0.050-0.121 0.112l-0 0q0 0.002 0 0.004zM6.801 15.551c0 0.072 0.058 0.13 0.13 0.13h0c0.001 0 0.002 0 0.003 0 0.066 0 0.12-0.053 0.122-0.119v-0q0-0.006 0-0.011c0-0.002 0-0.005 0-0.007 0-0.065-0.052-0.117-0.117-0.117-0.003 0-0.005 0-0.008 0l0-0c-0.002-0-0.003-0-0.005-0-0.067 0-0.123 0.053-0.125 0.12v0s-0 0.002-0 0.004zM7.056 16c0.002 0.068 0.056 0.122 0.124 0.124h0c0 0 0 0 0 0 0.068 0 0.123-0.055 0.124-0.123v-0c0-0.002 0-0.005 0-0.007 0-0.065-0.052-0.117-0.117-0.117-0.003 0-0.005 0-0.008 0l0-0c-0.002-0-0.003-0-0.005-0-0.064 0-0.117 0.051-0.12 0.114v0q0 0.004 0 0.008zM7.322 16.438c0 0.001-0 0.001-0 0.002 0 0.063 0.050 0.113 0.112 0.115h0.012c0.078 0 0.124-0.046 0.124-0.117 0-0.078-0.046-0.13-0.124-0.13-0.001-0-0.002-0-0.003-0-0.066 0-0.12 0.053-0.122 0.119v0q-0 0.006 0 0.011zM7.576 16.862c-0 0.002-0 0.003-0 0.005 0 0.067 0.053 0.123 0.12 0.125h0.004c0.001 0 0.002 0 0.003 0 0.066 0 0.12-0.053 0.122-0.119v-0q0-0.006 0-0.011c0-0.072-0.046-0.117-0.124-0.117-0.003-0-0.006-0-0.009-0-0.060 0-0.11 0.046-0.114 0.105l-0 0q0 0.005 0 0.011zM7.844 17.312c0.005 0.065 0.058 0.115 0.124 0.117h0c0 0 0.001 0 0.002 0 0.066 0 0.119-0.052 0.122-0.117v-0c0-0.078-0.046-0.13-0.124-0.13-0.001-0-0.002-0-0.003-0-0.066 0-0.12 0.053-0.122 0.119v0q0 0.006 0 0.011zM8.13 17.721c-0 0.002-0 0.003-0 0.005 0 0.067 0.053 0.123 0.12 0.125h0.004c0.001 0 0.002 0 0.003 0 0.066 0 0.12-0.053 0.121-0.119v-0q0-0.006 0-0.011c0-0.003 0.001-0.007 0.001-0.011 0-0.062-0.051-0.113-0.113-0.113-0.004 0-0.008 0-0.012 0.001l0.001-0c-0.002-0-0.005-0-0.007-0-0.065 0-0.117 0.052-0.117 0.117 0 0.002 0 0.005 0 0.007v-0zM8.41 17.312c0.009 0.065 0.063 0.116 0.13 0.117h0c0 0 0.001 0 0.002 0 0.066 0 0.119-0.052 0.122-0.117v-0c0-0.078-0.046-0.13-0.124-0.13-0.001-0-0.002-0-0.004-0-0.069 0-0.125 0.055-0.127 0.123v0q0 0.003 0 0.006zM8.671 16.861c-0 0.002-0 0.003-0 0.005 0 0.067 0.053 0.123 0.12 0.125h0.004c0.001 0 0.002 0 0.003 0 0.066 0 0.12-0.053 0.121-0.119v-0q0-0.006 0-0.011c0-0.072-0.046-0.117-0.124-0.117-0.003-0-0.006-0-0.009-0-0.063 0-0.115 0.051-0.115 0.115 0 0.001 0 0.002 0 0.003v-0zM8.951 16.437c0 0.001-0 0.001-0 0.002 0 0.063 0.050 0.113 0.112 0.115h0.012c0.078 0 0.124-0.046 0.124-0.117 0-0.078-0.046-0.13-0.124-0.13-0.001-0-0.002-0-0.003-0-0.067 0-0.122 0.054-0.122 0.122 0 0.003 0 0.007 0 0.010l-0-0zM9.219 15.999c0.002 0.068 0.056 0.122 0.124 0.124h0c0 0 0 0 0 0 0.068 0 0.123-0.055 0.124-0.123v-0c0-0.002 0-0.005 0-0.007 0-0.065-0.052-0.117-0.117-0.117-0.003 0-0.005 0-0.008 0l0-0c-0.001-0-0.002-0-0.004-0-0.065 0-0.118 0.052-0.12 0.117v0q-0 0.003 0 0.007zM9.466 15.55c-0 0.002-0 0.003-0 0.005 0 0.068 0.053 0.123 0.12 0.125h0.004c0.001 0 0.002 0 0.003 0 0.066 0 0.12-0.052 0.121-0.118v-0q0-0.006 0-0.011c0-0.002 0-0.005 0-0.007 0-0.065-0.052-0.117-0.117-0.117-0.003 0-0.005 0-0.008 0l0-0c-0.001-0-0.003-0-0.004-0-0.065 0-0.117 0.051-0.12 0.115v0q0 0.005 0 0.010zM9.942 15.048c0.002 0.068 0.056 0.122 0.124 0.124h0c0.003 0 0.006 0 0.009 0 0.064 0 0.117-0.050 0.121-0.112l0-0q0-0.006 0-0.011c0-0.078-0.052-0.124-0.13-0.124-0 0-0 0-0 0-0.068 0-0.123 0.055-0.124 0.123v0.002zM9.942 15.544c0.002 0.069 0.056 0.125 0.123 0.13l0 0c0.001 0 0.002 0 0.004 0 0.069 0 0.125-0.055 0.127-0.123v-0q0-0.004 0-0.007c0-0.001 0-0.002 0-0.003 0-0.066-0.053-0.12-0.119-0.121h-0.012c-0.067 0.002-0.122 0.056-0.124 0.123v0zM9.942 16.041c0.002 0.069 0.056 0.125 0.123 0.13l0 0c0.001 0 0.002 0 0.004 0 0.069 0 0.125-0.055 0.127-0.123v-0q0-0.003 0-0.007c0-0.072-0.052-0.117-0.13-0.117-0.001 0-0.001-0-0.002-0-0.065 0-0.118 0.051-0.122 0.115l-0 0zM9.942 16.543c0.007 0.065 0.058 0.117 0.123 0.124l0.001 0c0 0 0.001 0 0.001 0 0.070 0 0.126-0.055 0.129-0.124v-0c0-0.001 0-0.002 0-0.003 0-0.066-0.053-0.12-0.119-0.122h-0.012c-0.067 0.002-0.121 0.055-0.124 0.122v0zM9.942 17.045c0.008 0.064 0.059 0.113 0.124 0.117l0 0c0.068 0 0.124-0.055 0.124-0.124s-0.055-0.124-0.124-0.124v0c-0.069 0.003-0.124 0.059-0.124 0.129v0zM9.942 17.542c0.008 0.064 0.059 0.113 0.124 0.117l0 0c0.068 0 0.124-0.055 0.124-0.124s-0.055-0.124-0.124-0.124v0c-0.068 0.003-0.123 0.059-0.124 0.127v0zM9.942 18.038c0.003 0.065 0.056 0.117 0.122 0.117 0.001 0 0.001 0 0.002 0h-0c0.078 0 0.13-0.046 0.13-0.117 0-0.002 0-0.005 0-0.008 0-0.068-0.055-0.123-0.123-0.123-0.003 0-0.005 0-0.008 0l0-0c-0.068 0.003-0.122 0.058-0.124 0.125v0zM9.942 18.535c0.002 0.069 0.056 0.125 0.123 0.13l0 0c0.001 0 0.002 0 0.004 0 0.069 0 0.125-0.055 0.127-0.123v-0q0-0.003 0-0.007c0-0.078-0.052-0.124-0.13-0.124-0 0-0 0-0 0-0.066 0-0.12 0.052-0.123 0.117v0z"></path>
<path fill="#999" d="M12.382 18.236l-0.143 0.443q-0.078 0.234-0.195 0.351c-0.073 0.076-0.175 0.124-0.289 0.124-0.001 0-0.002 0-0.003 0h0c-0.306 0-0.56-0.228-0.56-0.497-0-0.003-0-0.008-0-0.012 0-0.103 0.019-0.202 0.054-0.294l-0.002 0.006 1.238-3.155q0.254-0.665 0.821-0.665c0.358 0 0.614 0.202 0.756 0.6l1.18 3.2c0.046 0.15 0.072 0.261 0.072 0.332 0 0.28-0.209 0.482-0.515 0.482-0.254 0-0.437-0.169-0.541-0.502l-0.13-0.417zM11.795 18.68c-0.002-0.068-0.056-0.122-0.124-0.124h-0c-0 0-0.001 0-0.001 0-0.070 0-0.126 0.055-0.129 0.124v0c-0 0.001-0 0.002-0 0.003 0 0.066 0.053 0.12 0.119 0.122h0.012c0.001 0 0.003 0 0.004 0 0.065 0 0.118-0.052 0.12-0.117v-0q0-0.003 0-0.007zM11.951 18.23c0-0.072-0.058-0.117-0.13-0.117-0.065 0-0.117 0.052-0.117 0.117v0c-0 0.002-0 0.004-0 0.006 0 0.066 0.052 0.12 0.117 0.124l0 0c0.001 0 0.002 0 0.004 0 0.069 0 0.125-0.055 0.127-0.123v-0q0-0.004 0-0.008zM12.114 17.787c0-0.072-0.046-0.13-0.117-0.13-0.001-0-0.002-0-0.004-0-0.069 0-0.125 0.055-0.127 0.123v0q0 0.003 0 0.007c0 0.078 0.052 0.117 0.13 0.117 0.004 0 0.008 0.001 0.012 0.001 0.058 0 0.106-0.047 0.106-0.106 0-0.004-0-0.008-0.001-0.012l0 0zM12.316 17.344c-0.005-0.068-0.061-0.122-0.13-0.124h-0c-0.001 0-0.001 0-0.002 0-0.068 0-0.123 0.054-0.124 0.122v0.002c-0 0.002-0 0.005-0 0.007 0 0.065 0.052 0.117 0.117 0.117 0.003 0 0.005-0 0.008-0l-0 0c0.002 0 0.004 0 0.006 0 0.067 0 0.122-0.052 0.125-0.118v-0q0-0.003 0-0.005zM12.486 16.888c0-0.072-0.058-0.117-0.13-0.117-0.065 0-0.117 0.052-0.117 0.117v0c-0 0.002-0 0.004-0 0.006 0 0.066 0.052 0.12 0.117 0.124l0 0c0.001 0 0.002 0 0.004 0 0.069 0 0.125-0.055 0.127-0.123v-0q0-0.004 0-0.008zM12.616 17.787c0-0.072-0.046-0.13-0.117-0.13-0.001-0-0.002-0-0.004-0-0.069 0-0.125 0.055-0.127 0.123v0q0 0.003 0 0.007c0 0.078 0.052 0.117 0.13 0.117 0.003 0 0.007 0.001 0.011 0.001 0.059 0 0.106-0.048 0.106-0.106 0-0.004-0-0.008-0.001-0.012l0 0zM12.642 16.438c0-0.072-0.046-0.13-0.117-0.13-0.001-0-0.002-0-0.004-0-0.069 0-0.125 0.055-0.127 0.123v0q0 0.003 0 0.007c0 0.078 0.052 0.117 0.13 0.117 0.003 0 0.007 0.001 0.011 0.001 0.059 0 0.106-0.048 0.106-0.106 0-0.004-0-0.008-0.001-0.012l0 0zM12.831 15.982c-0.005-0.068-0.061-0.122-0.13-0.124h-0c-0.065 0-0.117 0.052-0.117 0.117v0q0 0.004 0 0.007c0 0.072 0.039 0.124 0.117 0.124 0.002 0 0.003 0 0.005 0 0.068 0 0.123-0.053 0.125-0.12v-0q0-0.002 0-0.004zM13.274 15.8l-0.58 1.525h1.127zM13 15.533c-0.008-0.064-0.059-0.113-0.124-0.117l-0-0c-0.068 0-0.124 0.055-0.124 0.124s0.055 0.124 0.124 0.124v0c0.069-0.003 0.124-0.060 0.124-0.129 0-0.001 0-0.001 0-0.002v0zM13.131 17.788c0-0.002 0-0.003 0-0.005 0-0.067-0.053-0.123-0.12-0.125h-0.004c-0.001-0-0.002-0-0.003-0-0.066 0-0.12 0.053-0.121 0.119v0q0 0.006 0 0.011c0 0.078 0.046 0.117 0.124 0.117 0.072 0 0.124-0.040 0.124-0.117zM13.196 15.122c0-0.001 0-0.001 0-0.002 0-0.067-0.051-0.122-0.116-0.128l-0.001-0c-0.001-0-0.002-0-0.004-0-0.069 0-0.125 0.055-0.127 0.123v0q0 0.004 0 0.007c0 0.072 0.052 0.117 0.13 0.117 0.065 0 0.117-0.052 0.117-0.117v0zM13.605 15.122c-0-0.072-0.058-0.13-0.13-0.13h-0c-0.072 0-0.117 0.058-0.117 0.13-0 0.002-0 0.005-0 0.008 0 0.060 0.049 0.11 0.11 0.11 0.003 0 0.005-0 0.008-0l-0 0c0.072 0 0.13-0.046 0.13-0.117zM13.631 17.788c-0-0.072-0.058-0.13-0.13-0.13h-0c-0.001-0-0.002-0-0.003-0-0.066 0-0.12 0.053-0.121 0.119v0q0 0.006 0 0.011c0 0.078 0.046 0.117 0.124 0.117 0.072 0 0.131-0.040 0.131-0.117zM13.806 15.533c0-0.058-0.065-0.117-0.124-0.117-0.068 0-0.124 0.055-0.124 0.124s0.055 0.124 0.124 0.124v0c0.069-0.003 0.125-0.059 0.125-0.129 0-0.001 0-0.001 0-0.002v0zM13.969 15.982c0-0.001 0-0.001 0-0.002 0-0.066-0.052-0.119-0.117-0.122h-0c-0 0-0.001 0-0.001 0-0.070 0-0.126 0.055-0.129 0.124v0c-0 0.001-0 0.002-0 0.003 0 0.066 0.053 0.12 0.119 0.122h0.012c0.001 0 0.002 0 0.002 0 0.063 0 0.115-0.051 0.115-0.115 0-0.004-0-0.007-0-0.010l0 0zM14.141 16.438c-0-0.072-0.058-0.13-0.13-0.13h-0c-0.072 0-0.117 0.058-0.117 0.13-0 0.003-0.001 0.007-0.001 0.011 0 0.059 0.048 0.106 0.106 0.106 0.004 0 0.008-0 0.012-0.001l-0 0c0.072 0 0.13-0.039 0.13-0.117zM14.141 17.787c-0-0.072-0.058-0.13-0.13-0.13h-0c-0.072 0-0.117 0.058-0.117 0.13 0 0.078 0.046 0.117 0.117 0.117s0.13-0.039 0.13-0.117zM14.297 16.888c0-0.068-0.055-0.124-0.124-0.124s-0.124 0.055-0.124 0.124c0 0.068 0.055 0.124 0.124 0.124v0c0.068 0 0.124-0.055 0.124-0.124v0zM14.454 17.344c-0.002-0.068-0.056-0.122-0.124-0.124h-0c-0 0-0 0-0 0-0.068 0-0.123 0.055-0.124 0.123v0c-0 0.002-0 0.005-0 0.007 0 0.065 0.052 0.117 0.117 0.117 0.003 0 0.005-0 0.008-0l-0 0c0.001 0 0.003 0 0.004 0 0.065 0 0.118-0.052 0.12-0.117v-0q0-0.002 0-0.006zM14.623 17.787c-0.002-0.069-0.056-0.125-0.123-0.13l-0-0c-0.001-0-0.002-0-0.003-0-0.066 0-0.12 0.053-0.121 0.119v0q0 0.006 0 0.011c0 0.078 0.046 0.117 0.124 0.117 0.002 0 0.005 0 0.007 0 0.062 0 0.113-0.048 0.117-0.109l0-0q0-0.004 0-0.008zM14.779 18.224c-0.003-0.065-0.056-0.117-0.122-0.117-0.001 0-0.001 0-0.002 0h0c-0.078 0-0.13 0.046-0.13 0.117-0 0.002-0 0.005-0 0.008 0 0.068 0.055 0.123 0.123 0.123 0.003 0 0.005-0 0.008-0l-0 0c0.069-0.003 0.124-0.060 0.124-0.129 0-0.001 0-0.001 0-0.002v0zM14.949 18.68c-0.005-0.068-0.061-0.122-0.13-0.124h-0c-0.065 0.003-0.117 0.056-0.117 0.122 0 0.001 0 0.001 0 0.002v-0c-0 0.003-0 0.007-0 0.010 0 0.060 0.046 0.11 0.105 0.114l0 0h0.011c0.002 0 0.003 0 0.005 0 0.068 0 0.123-0.053 0.125-0.12v-0.004z"></path>
<path fill="#999" d="M16.907 16.513l0.033 1.942c0 0.443-0.221 0.626-0.515 0.626-0.306 0-0.515-0.183-0.515-0.626v-3.428c0-0.313 0.189-0.502 0.508-0.502 0.215 0 0.409 0.117 0.574 0.345l1.564 2.294-0.033-1.987c0-0.437 0.221-0.619 0.515-0.619s0.515 0.183 0.515 0.619v3.434c0 0.313-0.189 0.502-0.508 0.502-0.221 0-0.417-0.117-0.58-0.351zM16.293 15.052c0.001 0.069 0.057 0.124 0.125 0.124 0.001 0 0.001 0 0.002 0h0.003c0.001 0 0.002 0 0.002 0 0.063 0 0.115-0.051 0.115-0.115 0-0.003-0-0.006-0-0.009l0 0c0-0.078-0.046-0.124-0.117-0.124-0.002-0-0.005-0-0.008-0-0.064 0-0.117 0.050-0.121 0.114l-0 0q0 0.006 0 0.011zM16.293 15.548c0 0.072 0.058 0.13 0.13 0.13h0c0.072 0 0.117-0.058 0.117-0.13 0-0.003 0-0.006 0-0.009 0-0.060-0.046-0.11-0.105-0.114l-0-0h-0.011c-0.001-0-0.003-0-0.004-0-0.068 0-0.123 0.054-0.125 0.121v0.002zM16.293 16.045c0 0.072 0.058 0.13 0.13 0.13h0c0.072 0 0.117-0.058 0.117-0.13 0-0.002 0-0.005 0-0.008 0-0.060-0.049-0.11-0.11-0.11-0.003 0-0.005 0-0.008 0l0-0c-0.071-0.002-0.129 0.043-0.129 0.115zM16.293 16.547c0.006 0.068 0.061 0.122 0.13 0.124h0c0.065-0.003 0.117-0.056 0.117-0.122 0-0.001 0-0.001 0-0.002v0c0-0.003 0-0.006 0-0.009 0-0.060-0.046-0.11-0.105-0.114l-0-0h-0.011c-0.001-0-0.003-0-0.004-0-0.068 0-0.123 0.054-0.125 0.121v0zM16.293 17.049c0.006 0.066 0.061 0.117 0.128 0.117 0.001 0 0.001 0 0.002-0h-0c0.065 0 0.117-0.052 0.117-0.117v0c0-0.078-0.046-0.13-0.117-0.13-0.001 0-0.002-0-0.002-0-0.069 0-0.125 0.055-0.127 0.124v0.004zM16.293 17.546c0.006 0.066 0.061 0.117 0.128 0.117 0.001 0 0.001 0 0.002-0h-0c0.065 0 0.117-0.052 0.117-0.117v0c0-0.078-0.046-0.13-0.117-0.13-0.001 0-0.002-0-0.002-0-0.069 0-0.125 0.055-0.127 0.124v0.002zM16.293 18.042c0 0.072 0.058 0.117 0.13 0.117 0.002 0 0.005 0 0.008 0 0.061 0 0.11-0.049 0.11-0.11 0-0.003-0-0.005-0-0.008l0 0c0-0.078-0.046-0.13-0.117-0.13-0.001 0-0.002-0-0.002-0-0.069 0-0.125 0.055-0.127 0.124v0zM16.293 18.539c0 0.072 0.058 0.13 0.13 0.13h0c0.072 0 0.117-0.058 0.117-0.13 0-0.078-0.046-0.124-0.117-0.124-0.002-0-0.005-0-0.008-0-0.064 0-0.117 0.050-0.121 0.114l-0 0v0.004zM16.776 15.613c0.001 0.069 0.057 0.124 0.125 0.124 0.001 0 0.001 0 0.002 0h0.003c0.078 0 0.117-0.052 0.117-0.124 0-0.078-0.039-0.124-0.117-0.124-0.002-0-0.005-0-0.008-0-0.064 0-0.117 0.050-0.121 0.113l-0 0v0.004zM17.089 16.11c0 0.072 0.058 0.13 0.13 0.13h0c0.072 0 0.117-0.058 0.117-0.13 0-0.078-0.046-0.124-0.117-0.124-0.002-0-0.005-0-0.008-0-0.064 0-0.117 0.050-0.121 0.113l-0 0v0.003zM17.421 16.566c0.007 0.065 0.058 0.117 0.123 0.124l0.001 0c0.069-0.002 0.125-0.058 0.125-0.128 0-0.001 0-0.002-0-0.003v0c0-0.002 0-0.005 0-0.007 0-0.065-0.052-0.117-0.117-0.117-0.003 0-0.005 0-0.008 0l0-0c-0 0-0 0-0.001 0-0.068 0-0.123 0.055-0.124 0.123v0zM17.747 17.035c0.005 0.063 0.054 0.112 0.116 0.117l0 0c0.002 0 0.004 0 0.007 0 0.068 0 0.124-0.055 0.124-0.124s-0.055-0.124-0.124-0.124c-0.068 0-0.124 0.055-0.124 0.124 0 0.002 0 0.005 0 0.007v-0zM18.086 17.511c0 0.001-0 0.001-0 0.002 0 0.063 0.050 0.113 0.112 0.115h0.012c0.078 0 0.124-0.046 0.124-0.117 0-0.078-0.046-0.13-0.124-0.13-0 0-0.001 0-0.001 0-0.067 0-0.121 0.054-0.122 0.12v0.003zM18.43 17.987c0 0.072 0.058 0.13 0.13 0.13h0c0.072 0 0.117-0.058 0.117-0.13 0-0.003 0.001-0.007 0.001-0.011 0-0.059-0.048-0.106-0.106-0.106-0.004 0-0.008 0-0.012 0.001l0-0c-0.071-0.008-0.129 0.031-0.129 0.11zM18.919 15.061c-0 0.001-0 0.003-0 0.004 0 0.065 0.052 0.118 0.117 0.12h0.008c0.002 0 0.005 0 0.007 0 0.065 0 0.117-0.052 0.117-0.117 0-0.003-0-0.005-0-0.008l0 0c0-0.003 0.001-0.007 0.001-0.011 0-0.062-0.051-0.113-0.113-0.113-0.004 0-0.008 0-0.012 0.001l0-0c-0.002-0-0.004-0-0.006-0-0.062 0-0.113 0.049-0.117 0.11v0q0 0.003 0 0.006zM18.919 15.557c0.002 0.067 0.057 0.121 0.125 0.121h0c0.001 0 0.002 0 0.003 0 0.066 0 0.12-0.053 0.122-0.119v-0q0-0.006 0-0.011c0-0.002 0-0.005 0-0.007 0-0.065-0.052-0.117-0.117-0.117-0.003 0-0.005 0-0.008 0l0-0c-0.001-0-0.002-0-0.003-0-0.065 0-0.118 0.052-0.12 0.117v0q0 0.003 0 0.006zM18.919 16.054c-0 0.002-0 0.003-0 0.005 0 0.067 0.053 0.123 0.12 0.125h0.005c0.001 0 0.002 0 0.003 0 0.066 0 0.12-0.053 0.122-0.119v-0q0-0.006 0-0.011c0-0.072-0.046-0.117-0.124-0.117-0.003-0-0.006-0-0.009-0-0.060 0-0.11 0.047-0.114 0.106l-0 0zM18.919 16.556c0.002 0.068 0.056 0.122 0.124 0.124h0c0 0 0 0 0 0 0.068 0 0.123-0.055 0.124-0.123v-0c0-0.002 0-0.005 0-0.007 0-0.065-0.052-0.117-0.117-0.117-0.003 0-0.005 0-0.008 0l0-0c-0.001-0-0.002-0-0.003-0-0.064 0-0.116 0.050-0.12 0.113v0zM18.919 17.058c0.003 0.065 0.057 0.117 0.123 0.117 0 0 0.001 0 0.001 0h-0c0.002 0 0.004 0 0.006 0 0.063 0 0.115-0.050 0.118-0.113v-0.004c0-0.078-0.046-0.13-0.124-0.13-0 0-0.001 0-0.001 0-0.067 0-0.121 0.053-0.122 0.12v0zM18.919 17.555c0.003 0.065 0.057 0.117 0.123 0.117 0 0 0.001 0 0.001 0h-0c0.002 0 0.004 0 0.006 0 0.063 0 0.115-0.050 0.118-0.113v-0.004c0-0.078-0.046-0.13-0.124-0.13-0 0-0.001 0-0.002 0-0.066 0-0.119 0.052-0.121 0.117v0zM18.919 18.051c0 0.001-0 0.001-0 0.002 0 0.063 0.050 0.113 0.112 0.115h0.012c0.078 0 0.124-0.046 0.124-0.117 0-0.078-0.046-0.13-0.124-0.13-0 0-0.001 0-0.002 0-0.066 0-0.119 0.052-0.121 0.117v0zM18.919 18.548c-0 0.002-0 0.003-0 0.005 0 0.067 0.053 0.123 0.12 0.125h0.005c0.001 0 0.002 0 0.003 0 0.066 0 0.12-0.053 0.122-0.119v-0q0-0.006 0-0.011c0-0.003 0-0.007 0-0.011 0-0.062-0.051-0.113-0.113-0.113-0.004 0-0.008 0-0.012 0.001l0-0c-0.002-0-0.004-0-0.006-0-0.062 0-0.113 0.048-0.117 0.109l-0 0z"></path>
<path fill="#999" d="M20.669 14.561c0.292 0 0.515 0.183 0.515 0.619v3.278c0 0.443-0.221 0.626-0.515 0.626-0.306 0-0.515-0.183-0.515-0.626v-3.219c-0.001-0.515 0.208-0.678 0.515-0.678zM20.539 15.057c0.001 0.069 0.057 0.124 0.125 0.124 0.001 0 0.001 0 0.002 0h0.003c0.001 0 0.002 0 0.002 0 0.063 0 0.115-0.051 0.115-0.115 0-0.003-0-0.006-0-0.009l0 0c0-0.078-0.046-0.124-0.117-0.124-0.003-0-0.006-0-0.009-0-0.064 0-0.117 0.050-0.121 0.112l-0 0q0 0.005 0 0.010zM20.539 15.554c0 0.072 0.058 0.13 0.13 0.13h0c0.072 0 0.117-0.058 0.117-0.13 0-0.003 0-0.006 0-0.009 0-0.061-0.047-0.11-0.106-0.114l-0-0h-0.011c-0.002-0-0.003-0-0.005-0-0.067 0-0.122 0.053-0.125 0.12v0.004zM20.539 16.051c0 0.072 0.058 0.13 0.13 0.13h0c0.072 0 0.117-0.058 0.117-0.13 0-0.002 0-0.005 0-0.008 0-0.060-0.049-0.11-0.11-0.11-0.003 0-0.005 0-0.008 0l0-0c-0.005-0.001-0.011-0.001-0.016-0.001-0.063 0-0.114 0.051-0.114 0.114 0 0 0 0 0 0v0zM20.539 16.553c0.006 0.068 0.061 0.122 0.13 0.124h0c0.065-0.003 0.117-0.056 0.117-0.122 0-0.001 0-0.001 0-0.002v0c0-0.003 0-0.006 0-0.009 0-0.060-0.046-0.11-0.105-0.114l-0-0h-0.011c-0.002-0-0.003-0-0.005-0-0.067 0-0.122 0.053-0.125 0.119v0zM20.539 17.055c0.006 0.066 0.061 0.117 0.128 0.117 0.001 0 0.001 0 0.002-0h-0c0.065 0 0.117-0.052 0.117-0.117v0c0-0.078-0.046-0.13-0.117-0.13-0.001-0-0.002-0-0.004-0-0.069 0-0.125 0.055-0.127 0.123v0.003zM20.539 17.551c0.006 0.066 0.061 0.117 0.128 0.117 0.001 0 0.001 0 0.002-0h-0c0.065 0 0.117-0.052 0.117-0.117v0c0-0.078-0.046-0.13-0.117-0.13-0.001-0-0.002-0-0.004-0-0.069 0-0.125 0.055-0.127 0.123v0zM20.539 18.048c0 0.072 0.058 0.117 0.13 0.117 0.002 0 0.005 0 0.008 0 0.061 0 0.11-0.049 0.11-0.11 0-0.003-0-0.005-0-0.008l0 0c0-0.078-0.046-0.13-0.117-0.13-0.001-0-0.002-0-0.004-0-0.069 0-0.125 0.055-0.127 0.123v0zM20.539 18.545c0 0.072 0.058 0.13 0.13 0.13h0c0.072 0 0.117-0.058 0.117-0.13 0-0.078-0.046-0.124-0.117-0.124-0.003-0-0.006-0-0.009-0-0.064 0-0.116 0.049-0.121 0.112l-0 0v0.012z"></path>
<path fill="#999" d="M22.978 18.235l-0.143 0.443q-0.078 0.234-0.195 0.351c-0.073 0.078-0.177 0.127-0.292 0.127-0.001 0-0.002 0-0.003 0h0c-0.306 0-0.56-0.228-0.56-0.497-0-0.003-0-0.008-0-0.012 0-0.103 0.019-0.202 0.054-0.294l-0.002 0.006 1.238-3.155q0.255-0.664 0.822-0.664c0.358 0 0.614 0.202 0.756 0.6l1.18 3.199c0.046 0.15 0.072 0.261 0.072 0.332 0 0.28-0.209 0.482-0.515 0.482-0.254 0-0.436-0.169-0.541-0.502l-0.13-0.417zM22.392 18.678c-0.002-0.068-0.056-0.122-0.124-0.124h-0c-0 0-0.001 0-0.001 0-0.070 0-0.126 0.055-0.129 0.124v0c-0 0.001-0 0.002-0 0.003 0 0.066 0.053 0.12 0.119 0.122h0.012c0.001 0 0.003 0 0.004 0 0.065 0 0.118-0.052 0.12-0.117v-0q0-0.003 0-0.007zM22.549 18.229c0-0.072-0.058-0.117-0.13-0.117-0.065 0-0.117 0.052-0.117 0.117v0c-0 0.002-0 0.004-0 0.006 0 0.066 0.052 0.12 0.117 0.124l0 0c0.001 0 0.002 0 0.004 0 0.069 0 0.125-0.055 0.127-0.123v-0q0-0.003 0-0.007zM22.712 17.786c0-0.072-0.046-0.13-0.117-0.13-0.001-0-0.002-0-0.004-0-0.069 0-0.125 0.055-0.127 0.123v0q0 0.003 0 0.007c0 0.078 0.052 0.117 0.13 0.117 0.071 0 0.117-0.039 0.117-0.117zM22.914 17.342c-0.006-0.069-0.062-0.122-0.131-0.124h-0c-0 0-0 0-0 0-0.068 0-0.123 0.055-0.124 0.123v0c-0 0.002-0 0.005-0 0.007 0 0.065 0.052 0.117 0.117 0.117 0.003 0 0.005-0 0.008-0l-0 0c0.001 0 0.003 0 0.005 0 0.068 0 0.123-0.054 0.125-0.121v-0.003zM23.084 16.886c0-0.072-0.058-0.117-0.13-0.117-0.065 0-0.117 0.052-0.117 0.117v0c-0 0.002-0 0.004-0 0.006 0 0.066 0.052 0.12 0.117 0.124l0 0c0.001 0 0.002 0 0.002 0 0.069 0 0.125-0.055 0.127-0.124v-0q0-0.003 0-0.006zM23.214 17.786c0-0.072-0.046-0.13-0.117-0.13-0.001-0-0.002-0-0.004-0-0.069 0-0.125 0.055-0.127 0.123v0q0 0.003 0 0.007c0 0.078 0.052 0.117 0.13 0.117 0.003 0 0.007 0.001 0.011 0.001 0.059 0 0.106-0.048 0.106-0.106 0-0.004-0-0.008-0.001-0.012l0 0zM23.24 16.437c0-0.072-0.046-0.13-0.117-0.13-0.001-0-0.002-0-0.004-0-0.069 0-0.125 0.055-0.127 0.123v0q0 0.003 0 0.007c0 0.078 0.052 0.117 0.13 0.117 0.003 0 0.007 0.001 0.011 0.001 0.059 0 0.106-0.048 0.106-0.106 0-0.004-0-0.008-0.001-0.012l0 0zM23.429 15.98c-0.006-0.068-0.061-0.122-0.13-0.124h-0c-0.065 0-0.117 0.052-0.117 0.117v0q0 0.004 0 0.007c0 0.072 0.039 0.124 0.117 0.124 0.001 0 0.003 0 0.004 0 0.068 0 0.123-0.054 0.125-0.121v-0.003zM23.872 15.798l-0.58 1.525h1.127zM23.599 15.531c-0.008-0.064-0.059-0.113-0.124-0.117l-0-0c-0.068 0-0.124 0.055-0.124 0.124s0.055 0.124 0.124 0.124v0c0.069-0.004 0.123-0.060 0.123-0.129 0-0.001 0-0.001 0-0.002v0zM23.729 17.786c0-0.002 0-0.003 0-0.005 0-0.067-0.053-0.123-0.12-0.125h-0.004c-0.001-0-0.002-0-0.003-0-0.066 0-0.12 0.053-0.122 0.119v0q0 0.006 0 0.011c0 0.078 0.046 0.117 0.124 0.117 0.070 0 0.123-0.039 0.123-0.117zM23.794 15.12c0-0.001 0-0.001 0-0.002 0-0.067-0.051-0.122-0.116-0.128l-0.001-0c-0.001-0-0.002-0-0.004-0-0.069 0-0.125 0.055-0.127 0.123v0q0 0.004 0 0.007c0 0.072 0.052 0.117 0.13 0.117 0.065 0 0.117-0.052 0.117-0.117v0zM24.203 15.12c-0-0.072-0.058-0.13-0.13-0.13h-0c-0.072 0-0.117 0.058-0.117 0.13-0 0.002-0 0.005-0 0.008 0 0.060 0.049 0.11 0.11 0.11 0.003 0 0.005-0 0.008-0l-0 0c0.071 0 0.129-0.045 0.129-0.117zM24.229 17.786c-0-0.072-0.058-0.13-0.13-0.13h-0c-0.001-0-0.002-0-0.003-0-0.066 0-0.12 0.053-0.122 0.119v0q0 0.006 0 0.011c0 0.078 0.046 0.117 0.124 0.117 0.071 0 0.129-0.039 0.129-0.117zM24.404 15.531c0-0.058-0.065-0.117-0.124-0.117-0.068 0-0.124 0.055-0.124 0.124s0.055 0.124 0.124 0.124v0c0.069-0.003 0.124-0.060 0.124-0.129 0-0.001 0-0.001 0-0.002v0zM24.567 15.98c0-0.001 0-0.001 0-0.002 0-0.066-0.052-0.119-0.117-0.122h-0c-0 0-0.001 0-0.001 0-0.070 0-0.126 0.055-0.129 0.124v0c-0 0.001-0 0.002-0 0.003 0 0.066 0.053 0.12 0.119 0.122h0.012c0.001 0 0.001 0 0.002 0 0.063 0 0.114-0.050 0.115-0.113v-0q0-0.006 0-0.011zM24.737 16.436c-0-0.072-0.058-0.13-0.13-0.13h-0c-0.072 0-0.117 0.058-0.117 0.13-0 0.003-0.001 0.007-0.001 0.011 0 0.059 0.048 0.106 0.106 0.106 0.004 0 0.008-0 0.012-0.001l-0 0c0.071 0.002 0.13-0.039 0.13-0.117zM24.737 17.785c-0-0.072-0.058-0.13-0.13-0.13h-0c-0.072 0-0.117 0.058-0.117 0.13 0 0.078 0.046 0.117 0.117 0.117s0.13-0.038 0.13-0.117zM24.893 16.886c-0-0.068-0.056-0.124-0.124-0.124s-0.124 0.055-0.124 0.124c0 0.068 0.055 0.124 0.124 0.124h0c0 0 0 0 0 0 0.068 0 0.124-0.055 0.124-0.124 0-0 0-0 0-0v0zM25.050 17.342c-0.002-0.068-0.056-0.122-0.124-0.124h-0c-0 0-0 0-0 0-0.068 0-0.123 0.055-0.124 0.123v0c-0 0.002-0 0.005-0 0.007 0 0.065 0.052 0.117 0.117 0.117 0.003 0 0.005-0 0.008-0l-0 0c0.001 0 0.003 0 0.004 0 0.065 0 0.118-0.052 0.12-0.117v-0q0-0.004 0-0.008zM25.219 17.785c-0.002-0.069-0.056-0.125-0.123-0.13l-0-0c-0.001-0-0.002-0-0.003-0-0.066 0-0.12 0.053-0.122 0.119v0q0 0.006 0 0.011c0 0.078 0.046 0.117 0.124 0.117 0.002 0 0.004 0 0.007 0 0.062 0 0.113-0.049 0.117-0.11l0-0q0-0.003 0-0.007zM25.375 18.224c-0.003-0.065-0.056-0.117-0.122-0.117-0.001 0-0.001 0-0.002 0h0c-0.078 0-0.13 0.046-0.13 0.117-0 0.002-0 0.005-0 0.008 0 0.068 0.055 0.123 0.123 0.123 0.003 0 0.005-0 0.008-0l-0 0c0.069-0.003 0.124-0.060 0.124-0.129 0-0 0-0 0-0.001v0zM25.545 18.68c-0.005-0.068-0.061-0.122-0.13-0.124h-0c-0.065 0.003-0.117 0.056-0.117 0.122 0 0.001 0 0.001 0 0.002v-0c-0 0.003-0 0.006-0 0.009 0 0.060 0.046 0.11 0.105 0.114l0 0h0.011c0.001 0 0.003 0 0.005 0 0.068 0 0.123-0.054 0.125-0.121v-0.003z"></path>
<path opacity="0.3" fill="#000" d="M24.691 8.080c-1.383 0-2.549 0.927-2.912 2.194l-0.005 0.021c-0.353-1.31-1.53-2.258-2.929-2.258s-2.576 0.948-2.924 2.236l-0.005 0.021c-0.367-1.288-1.534-2.215-2.917-2.215s-2.549 0.927-2.912 2.194l-0.005 0.021c-0.352-1.311-1.53-2.26-2.93-2.26-1.673 0-3.029 1.356-3.029 3.029s1.356 3.029 3.029 3.029c1.383 0 2.55-0.927 2.912-2.194l0.005-0.021c0.353 1.31 1.53 2.258 2.929 2.258s2.576-0.948 2.924-2.236l0.005-0.021c0.367 1.288 1.534 2.215 2.917 2.215s2.549-0.927 2.912-2.194l0.005-0.021c0.353 1.31 1.53 2.258 2.928 2.258 1.672 0 3.028-1.356 3.028-3.028s-1.355-3.028-3.027-3.028h-0z"></path>
<path d="M10.182 10.586c0 1.672-1.356 3.028-3.028 3.028s-3.028-1.356-3.028-3.028c0-1.672 1.356-3.028 3.028-3.028s3.028 1.356 3.028 3.028z"></path>
<path fill="#999" d="M9.732 10.586c0 1.458-1.182 2.639-2.639 2.639s-2.639-1.182-2.639-2.639c0-1.458 1.182-2.639 2.639-2.639s2.639 1.182 2.639 2.639z"></path>
<path opacity="0.1" fill="#000" d="M4.875 10.586c0-1.388 1.082-2.524 2.457-2.63-0.070-0.005-0.14-0.009-0.211-0.009-1.474 0-2.668 1.182-2.668 2.64s1.195 2.637 2.669 2.637c0.071 0 0.141-0.004 0.211-0.009-1.376-0.105-2.458-1.242-2.458-2.63z"></path>
<path d="M7.523 11.4c0-0.136-0.044-0.239-0.13-0.304q-0.122-0.098-0.489-0.228c-0.668-0.239-1.010-0.586-1.010-1.151q0-0.529 0.375-0.847c0.25-0.212 0.565-0.315 0.945-0.315 0.608 0 0.999 0.239 0.999 0.565 0 0.266-0.146 0.413-0.391 0.413-0.094-0.005-0.18-0.037-0.251-0.089l0.001 0.001c-0.090-0.055-0.199-0.088-0.316-0.088-0.007 0-0.015 0-0.022 0l0.001-0c-0.261 0-0.429 0.125-0.429 0.358 0 0.174 0.174 0.326 0.516 0.451 0.407 0.152 0.69 0.309 0.858 0.478s0.255 0.407 0.255 0.727c0 0.385-0.136 0.69-0.402 0.912s-0.603 0.337-1.015 0.337c-0.342 0-0.619-0.058-0.831-0.185s-0.315-0.268-0.315-0.437c0-0.239 0.174-0.424 0.434-0.424q0.106 0 0.309 0.114c0.121 0.067 0.265 0.107 0.418 0.109h0.001c0.32 0 0.488-0.174 0.488-0.396zM7.903 9.098c0-0.058-0.255-0.239-0.662-0.239-0.538 0-0.988 0.326-0.988 0.836-0.033 0.608 0.728 0.831 0.939 0.906 0.111 0.040 0.204 0.082 0.294 0.13l-0.012-0.006c0.1 0.044 0.186 0.1 0.261 0.169l-0.001-0.001c0.125 0.109 0.185 0.255 0.185 0.51v0.011c-0.004 0.222-0.102 0.42-0.254 0.559l-0.001 0.001c-0.146 0.13-0.342 0.201-0.608 0.201-0.201 0-0.407-0.033-0.597-0.141-0.088-0.049-0.125-0.088-0.146-0.088-0.049-0.022-0.088 0.006-0.088 0.044 0 0.049 0.065 0.114 0.174 0.163 0.188 0.086 0.407 0.137 0.638 0.137 0.008 0 0.017-0 0.025-0l-0.001 0c0.538 0 0.988-0.315 0.988-0.891 0-0.375-0.109-0.668-0.841-0.918-0.548-0.157-0.825-0.424-0.831-0.787 0-0.467 0.407-0.717 0.885-0.717 0.004-0 0.008-0 0.013-0 0.19 0 0.367 0.054 0.517 0.149l-0.004-0.002c0.017 0.017 0.039 0.030 0.064 0.034l0.001 0c0.034 0 0.050-0.022 0.050-0.060z"></path>
<path d="M16.028 10.63c0 1.672-1.356 3.028-3.028 3.028s-3.028-1.356-3.028-3.028c0-1.672 1.356-3.028 3.028-3.028s3.028 1.356 3.028 3.028z"></path>
<path fill="#999" d="M15.578 10.63c0 1.458-1.182 2.639-2.639 2.639s-2.639-1.182-2.639-2.639c0-1.458 1.182-2.639 2.639-2.639s2.639 1.182 2.639 2.639z"></path>
<path opacity="0.1" fill="#000" d="M10.721 10.629c0-1.388 1.081-2.524 2.457-2.63-0.070-0.005-0.14-0.009-0.211-0.009-1.474 0-2.668 1.182-2.668 2.64s1.194 2.639 2.667 2.639c0.071 0 0.141-0.004 0.211-0.009-1.373-0.106-2.456-1.243-2.456-2.631z"></path>
<path d="M12.831 11.705h0.95c0.277 0 0.429 0.141 0.429 0.402 0 0.266-0.152 0.407-0.429 0.407h-1.303c-0.375 0-0.526-0.157-0.526-0.532v-2.792c0-0.375 0.179-0.532 0.44-0.532 0.255 0 0.44 0.157 0.44 0.532zM12.451 12.047v-2.998c0-0.044-0.022-0.071-0.058-0.071-0.044 0-0.065 0.022-0.065 0.071v3.057c-0 0.002-0 0.005-0 0.008 0 0.018 0.006 0.034 0.017 0.046l-0-0c0.012 0.010 0.027 0.017 0.044 0.017 0.002 0 0.003-0 0.005-0h1.42c0.003 0 0.006 0.001 0.009 0.001 0.037 0 0.067-0.030 0.067-0.067 0-0.001-0-0.003-0-0.004v0c-0.005-0.034-0.034-0.059-0.068-0.059-0.003 0-0.005 0-0.008 0l0-0z"></path>
<path d="M21.873 10.586c0 1.672-1.356 3.028-3.028 3.028s-3.028-1.356-3.028-3.028c0-1.672 1.356-3.028 3.028-3.028s3.028 1.356 3.028 3.028z"></path>
<path fill="#999" d="M21.423 10.586c0 1.458-1.182 2.639-2.639 2.639s-2.639-1.182-2.639-2.639c0-1.458 1.182-2.639 2.639-2.639s2.639 1.182 2.639 2.639z"></path>
<path opacity="0.1" fill="#000" d="M16.566 10.586c0-1.388 1.081-2.524 2.457-2.63-0.070-0.005-0.14-0.009-0.211-0.009-1.474 0-2.668 1.182-2.668 2.64s1.195 2.637 2.668 2.637c0.071 0 0.141-0.004 0.211-0.009-1.375-0.105-2.457-1.242-2.457-2.63z"></path>
<path d="M18.845 12.605c-0.57 0-1.042-0.185-1.428-0.559s-0.576-0.863-0.576-1.455c0-0.597 0.19-1.081 0.576-1.455s0.863-0.565 1.428-0.565 1.037 0.19 1.423 0.565 0.581 0.863 0.581 1.455-0.19 1.081-0.576 1.455-0.858 0.559-1.428 0.559zM18.856 12.242c0.467 0 0.858-0.152 1.173-0.462 0.321-0.309 0.478-0.706 0.478-1.194 0-0.483-0.157-0.874-0.478-1.184s-0.711-0.467-1.173-0.467-0.853 0.157-1.173 0.467c-0.315 0.309-0.472 0.701-0.472 1.184 0 0.489 0.157 0.885 0.467 1.194 0.314 0.309 0.705 0.462 1.178 0.462zM18.845 12.128c-0.429 0-0.787-0.141-1.075-0.429s-0.434-0.657-0.434-1.108 0.146-0.82 0.434-1.108 0.652-0.434 1.081-0.434c0.434 0 0.798 0.146 1.091 0.434s0.44 0.657 0.44 1.108c0 0.456-0.146 0.825-0.445 1.113q-0.448 0.423-1.092 0.423zM18.845 11.731c0.321 0 0.576-0.103 0.771-0.315 0.201-0.212 0.299-0.489 0.299-0.831 0-0.347-0.098-0.624-0.299-0.836-0.195-0.212-0.451-0.315-0.771-0.315s-0.576 0.103-0.776 0.315c-0.195 0.212-0.292 0.489-0.292 0.836q0 0.513 0.292 0.831c0.201 0.212 0.456 0.315 0.776 0.315z"></path>
<path d="M27.719 10.63c0 1.672-1.356 3.028-3.028 3.028s-3.028-1.356-3.028-3.028c0-1.672 1.356-3.028 3.028-3.028s3.028 1.356 3.028 3.028z"></path>
<path fill="#999" d="M27.269 10.63c0 1.458-1.182 2.639-2.639 2.639s-2.639-1.182-2.639-2.639c0-1.458 1.182-2.639 2.639-2.639s2.639 1.182 2.639 2.639z"></path>
<path opacity="0.1" fill="#000" d="M22.412 10.629c0-1.388 1.081-2.524 2.457-2.63-0.070-0.005-0.14-0.009-0.211-0.009-1.474 0-2.668 1.182-2.668 2.64s1.195 2.64 2.668 2.64c0.071 0 0.141-0.004 0.211-0.009-1.375-0.108-2.457-1.244-2.457-2.632z"></path>
<path d="M24.254 9.462h-0.532c-0.266 0-0.423-0.141-0.423-0.402 0-0.266 0.157-0.407 0.423-0.407h1.938c0.266 0 0.424 0.141 0.424 0.402 0 0.266-0.157 0.407-0.424 0.407h-0.526v2.519c0 0.375-0.185 0.532-0.44 0.532-0.261 0-0.44-0.157-0.44-0.532zM24.624 9.13v2.992c-0 0.002-0 0.004-0 0.005 0 0.036 0.029 0.065 0.065 0.065 0.002 0 0.004-0 0.006-0l-0 0c0.038 0 0.054-0.022 0.054-0.071v-2.992h0.945c0.049 0 0.076-0.022 0.076-0.065s-0.032-0.058-0.076-0.058h-2.005c-0.049 0-0.076 0.016-0.076 0.054 0 0 0 0.001 0 0.001 0 0.039 0.031 0.070 0.070 0.070 0.002 0 0.004-0 0.006-0l-0 0z"></path>
</svg>
